mtllib stg600_obj_longtank_bp2.mtl

v 1.294094 -2.188720 0.093552
v -2.305705 -3.323173 0.371229
v 0.334016 -5.328464 0.083714
v -2.145025 1.655583 0.372684
v 2.782739 1.655583 0.391726
v 0.334102 4.642453 0.383036
v 1.616142 3.365607 -0.113028
v 0.335904 5.322631 -0.116961
v 3.017003 1.754373 -0.108416
v 4.122391 -0.567839 -0.459257
v 3.715336 -0.553569 -0.142724
v -2.306574 -3.579993 0.061779
v 1.294094 -2.188720 0.093552
v 0.334016 -5.328464 0.083714
v -2.378121 1.655738 -0.126727
v -3.247772 -0.557384 -0.316739
v -3.247772 -0.557384 -0.316739
v -2.378121 1.655738 -0.126727
v -2.305479 4.207191 -0.126604
v -2.081474 3.942762 0.373393
v -2.305705 -3.323173 0.371229
v -2.306574 -3.579993 0.061779
v 0.334016 -5.328464 0.083714
v -3.247772 -0.557384 -0.316739
v 0.335904 5.322631 -0.116961
v -2.305479 4.207191 -0.126604
v 1.616142 3.365607 -0.113028
v 3.017003 1.754373 -0.108416
v 4.122391 -0.567839 -0.459257

vt 1.095093 0.146149
vt 0.985046 0.102448
vt 1.064941 0.036072
vt 0.987732 0.281158
vt 1.140747 0.282562
vt 1.064972 0.388092
vt 1.098846 0.341858
vt 1.064972 0.388092
vt 1.140747 0.282562
vt 1.169037 0.204620
vt 1.169037 0.204620
vt 0.983856 0.097748
vt 1.094910 0.146454
vt 1.064941 0.036072
vt 0.977570 0.281219
vt 0.950043 0.203522
vt 0.950043 0.203522
vt 0.987732 0.281158
vt 0.986206 0.367767
vt 0.986206 0.367767
vt 0.985046 0.102448
vt 0.985046 0.102448
vt 1.064941 0.036072
vt 0.950043 0.203522
vt 1.065979 0.408447
vt 0.985016 0.370758
vt 1.104004 0.341553
vt 1.145782 0.284058
vt 1.185242 0.202118

vn 0.088439 -0.071471 0.993514
vn -0.023071 -0.009460 0.999689
vn 0.086121 -0.029419 0.995850
vn -0.489860 0.060851 0.869675
vn 0.482973 0.240418 0.841983
vn 0.229982 0.395999 0.888984
vn 0.719676 0.582040 0.378545
vn 0.163515 0.610479 0.774970
vn 0.769956 0.452391 0.450011
vn 0.635249 -0.175902 0.752009
vn 0.473804 -0.270135 0.838175
vn 0.049439 -0.021180 -0.998553
vn -0.025756 -0.019348 -0.999481
vn 0.008606 0.000488 -0.999963
vn 0.040710 -0.023742 -0.998889
vn 0.286928 -0.030579 -0.957464
vn -0.590593 0.043275 0.805809
vn -0.891846 0.176880 0.416321
vn -0.665478 0.493905 0.559641
vn -0.506484 0.297371 0.809348
vn -0.818133 -0.441355 0.368599
vn -0.666572 -0.572699 0.477178
vn -0.457403 -0.683663 0.568671
vn -0.938486 -0.264407 0.222109
vn 0.003479 0.000122 -0.999994
vn 0.003662 -0.000061 -0.999993
vn 0.003357 0.000122 -0.999994
vn -0.062988 -0.007507 -0.997986
vn -0.216127 0.044495 -0.975351

g polygon0
s 1
usemtl mat1
f 1/1/1 2/2/2 3/3/3
f 1/1/1 4/4/4 2/2/2
f 5/5/5 4/4/4 1/1/1
f 5/5/5 6/6/6 4/4/4
f 7/7/7 6/6/6 5/5/5
f 7/7/7 8/8/8 6/6/6
f 5/5/5 9/9/9 7/7/7
f 5/5/5 10/10/10 9/9/9
f 11/11/11 10/10/10 5/5/5
f 11/11/11 1/1/1 10/10/10
f 5/5/5 1/1/1 11/11/11
f 12/12/12 13/13/13 14/14/14
f 12/12/12 15/15/15 13/13/13
f 16/16/16 15/15/15 12/12/12
f 4/4/4 17/17/17 2/2/2
f 4/4/4 18/18/18 17/17/17
f 19/19/19 18/18/18 4/4/4
f 20/20/20 6/6/6 8/8/8
f 20/20/20 4/4/4 6/6/6
f 19/19/19 4/4/4 20/20/20
f 21/21/21 22/22/22 23/23/23
f 21/21/21 24/24/24 22/22/22
f 25/25/25 15/15/15 26/26/26
f 25/25/25 27/27/27 15/15/15
f 13/13/13 28/28/28 29/29/29
f 13/13/13 15/15/15 28/28/28
f 27/27/27 28/28/28 15/15/15
f 8/8/8 19/19/19 20/20/20

