mtllib stg600_obj_planterA_bp2.mtl

v -0.051504 -0.795546 0.000029
v 0.056746 -3.139627 -0.622345
v -0.520840 -4.916759 0.000029
v 0.453045 -0.704691 -0.462437
v -0.560315 3.393551 0.000029
v -0.216718 3.526930 -0.306356
v -1.715668 5.939941 0.000029
v 0.290616 3.757519 0.000029
v 1.464730 -0.463097 0.000029
v 1.274713 -3.141207 0.000029
v -0.520840 -4.916759 0.000029
v 0.056745 -3.139627 0.622403
v -0.051504 -0.795546 0.000029
v -0.520840 -4.916759 0.000029
v 0.453043 -0.704691 0.462495
v 1.274713 -3.141207 0.000029
v 1.464730 -0.463097 0.000029
v -0.560315 3.393551 0.000029
v -0.216719 3.526930 0.306414
v 0.290616 3.757519 0.000029
v -1.715668 5.939941 0.000029
v -0.520840 -4.916759 0.000029

vt 0.968018 1.263489
vt 1.244568 1.381958
vt 1.282471 1.321655
vt 0.968018 1.341736
vt 0.429626 1.301331
vt 0.429626 1.360046
vt 0.024902 1.393982
vt 0.429626 1.430664
vt 0.968018 1.467529
vt 1.209656 1.523376
vt 1.383423 1.448120
vt 1.244568 1.381958
vt 0.968018 1.263489
vt 1.282471 1.321655
vt 0.968018 1.341736
vt 1.209656 1.523376
vt 0.968018 1.467529
vt 0.429626 1.301331
vt 0.429626 1.360046
vt 0.429626 1.430664
vt 0.024902 1.393982
vt 1.383423 1.448120

vn -0.697205 0.043091 -0.715576
vn -0.227234 -0.105225 -0.968139
vn -0.126155 -0.291127 -0.948330
vn -0.102049 0.034423 -0.994184
vn -0.620488 -0.166383 -0.766363
vn -0.054504 0.061157 -0.996639
vn -0.058351 0.090029 -0.994228
vn 0.423999 0.230767 -0.875769
vn 0.411693 0.040467 -0.910424
vn 0.442995 -0.162598 -0.881656
vn -0.126155 -0.291127 -0.948330
vn -0.227234 -0.105225 0.968139
vn -0.697205 0.043091 0.715576
vn -0.126155 -0.291127 0.948330
vn -0.102049 0.034423 0.994184
vn 0.442995 -0.162598 0.881656
vn 0.411693 0.040467 0.910424
vn -0.620488 -0.166383 0.766363
vn -0.054504 0.061157 0.996639
vn 0.423999 0.230767 0.875769
vn -0.058351 0.090029 0.994228
vn -0.126155 -0.291127 0.948330

g polygon0
s 1
usemtl mat1
f 1/1/1 2/2/2 3/3/3
f 1/1/1 4/4/4 2/2/2
f 5/5/5 4/4/4 1/1/1
f 5/5/5 6/6/6 4/4/4
f 7/7/7 6/6/6 5/5/5
f 7/7/7 8/8/8 6/6/6
f 9/9/9 6/6/6 8/8/8
f 9/9/9 4/4/4 6/6/6
f 10/10/10 4/4/4 9/9/9
f 10/10/10 2/2/2 4/4/4
f 11/11/11 2/2/2 10/10/10
f 12/12/12 13/13/13 14/14/14
f 12/12/12 15/15/15 13/13/13
f 16/16/16 15/15/15 12/12/12
f 16/16/16 17/17/17 15/15/15
f 15/15/15 18/18/18 13/13/13
f 15/15/15 19/19/19 18/18/18
f 17/17/17 19/19/19 15/15/15
f 17/17/17 20/20/20 19/19/19
f 21/21/21 19/19/19 20/20/20
f 21/21/21 18/18/18 19/19/19
f 22/22/22 16/16/16 12/12/12

