mtllib stg600_obj_tankA_bp3.mtl

v -2.178684 -3.218064 0.747342
v -2.346455 -5.419473 -3.014539
v -2.387843 -5.962614 0.737626
v -2.178688 -3.218064 -4.077319
v -1.235341 0.989394 0.357119
v -1.235343 0.989400 -4.596727
v 0.380503 4.318890 -2.550097
v -1.715851 -3.294153 -4.077320
v -1.750979 -3.288297 0.568059
v -1.878762 -5.455115 -3.014539
v -0.828377 0.828248 0.188541
v -0.789872 0.842559 -4.596727
v 0.786934 4.084752 -2.550097
v 1.639634 2.509068 1.451765
v 2.272379 0.852482 3.230386
v 0.742827 4.061584 -0.462252
v 2.278206 6.000547 -1.100198
v -1.928185 -5.997336 0.650938
v -0.833824 -3.295150 1.437884
v 0.356723 -1.411847 2.030470
v 2.171317 -1.608304 3.907329
v 0.380504 4.318888 -0.312172
v 1.341249 2.713860 1.750150
v 1.949530 6.305345 -0.962076
v -1.878762 -5.455115 -3.014539
v -2.387843 -5.962614 0.737626
v -2.346455 -5.419473 -3.014539
v -1.928185 -5.997336 0.650938
v 0.033085 -1.309269 2.354109
v -0.833824 -3.295150 1.437884
v 0.356723 -1.411847 2.030470
v -1.160982 -3.218064 1.765042
v 2.171317 -1.608304 3.907329
v 1.955156 0.989392 3.547611
v 1.847679 -1.505726 4.230968
v 2.272379 0.852482 3.230386
v 1.341249 2.713860 1.750150
v 1.639634 2.509068 1.451765
v -2.346455 -5.419473 -3.014539
v -1.715851 -3.294153 -4.077320
v -1.878762 -5.455115 -3.014539
v -2.178688 -3.218064 -4.077319
v -0.789872 0.842559 -4.596727
v -1.235343 0.989400 -4.596727
v -1.928185 -5.997336 0.650938
v -2.387843 -5.962614 0.737626
v 0.356723 -1.411847 2.030470
v 1.847679 -1.505726 4.230968
v 0.033085 -1.309269 2.354109
v 2.171317 -1.608304 3.907329
v 1.639634 2.509068 1.451765
v 2.014379 4.318888 1.321700
v 1.341249 2.713860 1.750150
v 2.299054 4.078208 1.037024
v 1.949530 6.305345 -0.962076
v 2.278206 6.000547 -1.100198
v 2.278206 6.000547 -1.100198
v 0.380503 4.318890 -2.550097
v 1.949530 6.305345 -0.962076
v 0.786934 4.084752 -2.550097
v 2.299054 4.078208 1.037024
v -1.160982 -3.218064 1.765042
v 0.033085 -1.309269 2.354109
v 1.847679 -1.505726 4.230968
v 1.955156 0.989392 3.547611
v 2.014379 4.318888 1.321700

vt 4.000977 0.870361
vt 3.464355 0.480469
vt 4.000977 0.384277
vt 3.295654 0.870361
vt 4.000977 1.616211
vt 3.183350 1.616211
vt 3.526855 2.208008
vt 3.295654 0.870361
vt 4.000977 0.870361
vt 3.464355 0.480469
vt 4.000977 1.616211
vt 3.183350 1.616211
vt 3.526855 2.208008
vt 4.522217 1.922852
vt 4.746582 1.616211
vt 4.000977 2.208008
vt 4.000977 2.562256
vt 4.000977 0.384277
vt 4.211670 0.870361
vt 4.388672 1.210449
vt 4.801514 1.174072
vt 4.000977 2.208008
vt 4.522217 1.922852
vt 4.000977 2.562256
vt 3.464355 0.480469
vt 4.000977 0.384277
vt 3.464355 0.480469
vt 4.000977 0.384277
vt 4.388672 1.210449
vt 4.211670 0.870361
vt 4.388672 1.210449
vt 4.211670 0.870361
vt 4.801514 1.174072
vt 4.746582 1.616211
vt 4.801514 1.174072
vt 4.746582 1.616211
vt 4.522217 1.922852
vt 4.522217 1.922852
vt 3.464355 0.480469
vt 3.295654 0.870361
vt 3.464355 0.480469
vt 3.295654 0.870361
vt 3.183350 1.616211
vt 3.183350 1.616211
vt 4.000977 0.384277
vt 4.000977 0.384277
vt 4.388672 1.210449
vt 4.801514 1.174072
vt 4.388672 1.210449
vt 4.801514 1.174072
vt 4.522217 1.922852
vt 4.491211 2.208008
vt 4.522217 1.922852
vt 4.491211 2.208008
vt 4.000977 2.562256
vt 4.000977 2.562256
vt 4.000977 2.562256
vt 3.526855 2.208008
vt 4.000977 2.562256
vt 3.526855 2.208008
vt 4.491211 2.208008
vt 4.211670 0.870361
vt 4.388672 1.210449
vt 4.801514 1.174072
vt 4.746582 1.616211
vt 4.491211 2.208008

vn -0.911869 0.149720 0.382204
vn -0.997109 0.075987 0.000000
vn -0.979981 0.074036 0.184815
vn -0.986753 0.162231 0.000000
vn -0.867639 0.343577 0.359385
vn -0.949734 0.313058 0.000000
vn -0.866518 0.499146 0.000000
vn 0.987073 -0.160097 0.007507
vn 0.910224 -0.150331 -0.385867
vn 0.997564 -0.069458 0.006409
vn 0.867070 -0.343935 -0.360414
vn 0.949374 -0.314078 0.006714
vn 0.865079 -0.501542 0.009644
vn 0.627985 -0.438839 -0.642694
vn 0.670347 -0.294677 -0.681028
vn 0.772712 -0.548223 -0.319949
vn 0.699775 -0.650946 -0.294253
vn 0.981400 -0.069642 -0.178897
vn 0.679090 -0.155948 -0.717299
vn 0.687001 -0.207089 -0.696522
vn 0.687006 -0.214110 -0.694391
vn -0.772459 0.548582 0.319945
vn -0.636160 0.436578 0.636160
vn -0.700722 0.649821 0.294485
vn -0.077270 -0.986568 -0.143920
vn -0.099673 -0.984160 -0.146611
vn -0.075196 -0.986763 -0.143678
vn -0.102049 -0.983872 -0.146909
vn 0.510431 -0.533868 0.674125
vn 0.556753 -0.485710 0.673878
vn 0.507442 -0.533626 0.676569
vn 0.538921 -0.487714 0.686804
vn 0.723581 0.153383 0.672982
vn 0.726857 0.409784 0.551140
vn 0.722632 0.153437 0.673988
vn 0.730465 0.414976 0.542417
vn 0.721586 0.614526 0.318860
vn 0.728769 0.610786 0.309574
vn -0.037963 -0.437860 -0.898241
vn -0.043761 -0.280144 -0.958960
vn -0.033448 -0.439036 -0.897847
vn -0.046264 -0.277159 -0.959710
vn 0.063353 0.190120 -0.979715
vn 0.064940 0.184445 -0.980695
vn 0.178715 -0.408212 0.895223
vn 0.140319 -0.401548 0.905025
vn -0.208558 -0.972905 0.099793
vn -0.208558 -0.972905 0.099793
vn -0.208558 -0.972905 0.099793
vn -0.208558 -0.972905 0.099793
vn 0.672987 -0.086550 0.734573
vn 0.773624 0.203797 0.599978
vn 0.674019 -0.086854 0.733590
vn 0.769668 0.210880 0.602612
vn 0.708614 0.529660 0.466184
vn 0.697267 0.536317 0.475587
vn 0.162784 0.532480 -0.830642
vn 0.244380 0.438773 -0.864729
vn 0.153381 0.540280 -0.827388
vn 0.247254 0.435914 -0.865358
vn 0.598033 -0.513864 -0.615062
vn -0.697490 0.164363 0.697490
vn -0.689991 0.218685 0.689991
vn -0.689991 0.218685 0.689991
vn -0.676319 0.291865 0.676319
vn -0.606924 0.513115 0.606924

g polygon0
s 1
usemtl mat1
f 1/1/1 2/2/2 3/3/3
f 1/1/1 4/4/4 2/2/2
f 5/5/5 4/4/4 1/1/1
f 5/5/5 6/6/6 4/4/4
f 7/7/7 6/6/6 5/5/5
f 8/8/8 9/9/9 10/10/10
f 8/8/8 11/11/11 9/9/9
f 12/12/12 11/11/11 8/8/8
f 12/12/12 13/13/13 11/11/11
f 11/11/11 14/14/14 15/15/15
f 11/11/11 16/16/16 14/14/14
f 13/13/13 16/16/16 11/11/11
f 13/13/13 17/17/17 16/16/16
f 9/9/9 18/18/18 10/10/10
f 9/9/9 19/19/19 18/18/18
f 20/20/20 19/19/19 9/9/9
f 11/11/11 20/20/20 9/9/9
f 11/11/11 21/21/21 20/20/20
f 15/15/15 21/21/21 11/11/11
f 22/22/22 5/5/5 23/23/23
f 22/22/22 7/7/7 5/5/5
f 24/24/24 7/7/7 22/22/22
f 25/25/25 26/26/26 27/27/27
f 25/25/25 28/28/28 26/26/26
f 29/29/29 30/30/30 31/31/31
f 29/29/29 32/32/32 30/30/30
f 33/33/33 34/34/34 35/35/35
f 33/33/33 36/36/36 34/34/34
f 36/36/36 37/37/37 34/34/34
f 36/36/36 38/38/38 37/37/37
f 39/39/39 40/40/40 41/41/41
f 39/39/39 42/42/42 40/40/40
f 42/42/42 43/43/43 40/40/40
f 42/42/42 44/44/44 43/43/43
f 45/45/45 32/32/32 46/46/46
f 45/45/45 30/30/30 32/32/32
f 47/47/47 48/48/48 49/49/49
f 47/47/47 50/50/50 48/48/48
f 51/51/51 52/52/52 53/53/53
f 51/51/51 54/54/54 52/52/52
f 54/54/54 55/55/55 52/52/52
f 54/54/54 56/56/56 55/55/55
f 57/57/57 58/58/58 59/59/59
f 57/57/57 60/60/60 58/58/58
f 60/60/60 44/44/44 58/58/58
f 60/60/60 43/43/43 44/44/44
f 16/16/16 61/61/61 14/14/14
f 16/16/16 17/17/17 61/61/61
f 62/62/62 1/1/1 3/3/3
f 62/62/62 63/63/63 1/1/1
f 63/63/63 5/5/5 1/1/1
f 63/63/63 64/64/64 5/5/5
f 65/65/65 5/5/5 64/64/64
f 65/65/65 23/23/23 5/5/5
f 66/66/66 22/22/22 23/23/23
f 66/66/66 24/24/24 22/22/22

