mtllib stg600_obj_meteoriteB03.mtl

v 36.131523 51.555305 -31.861654
v 12.175373 56.004917 -33.247875
v 21.551075 63.143372 -13.459213
v 30.094271 47.277618 -44.925499
v 40.679050 36.716263 -50.770248
v 18.804619 37.352024 -56.427811
v 20.405207 11.770301 -64.458221
v 2.150810 11.093493 -63.201286
v 4.188715 -16.706171 -65.085945
v -19.020693 7.191406 -69.380440
v -21.157871 -19.469597 -69.327614
v -43.369251 -0.136162 -63.217865
v -44.406200 -21.512028 -56.066593
v -65.663673 -4.085231 -36.997749
v -53.746052 -32.077057 -30.651842
v -63.855064 -21.337420 -5.604208
v -57.319443 -43.330704 -2.091435
v -59.833191 -35.897602 21.088219
v -47.950584 -55.260738 1.047651
v -39.879463 -53.380676 23.870516
v -29.708305 -69.905426 7.495816
v -16.931238 -69.332283 26.687967
v -8.173127 -74.743080 2.210246
v 1.032928 -72.245735 23.108387
v 16.753880 -72.389755 9.522136
v 26.477079 -64.553764 24.085171
v 35.828480 -52.739853 -4.597102
v 44.456593 -41.460663 26.861076
v -17.459612 -16.727978 68.817833
v -23.834930 -23.331221 66.509125
v -20.116440 -25.337847 63.991356
v -17.884443 6.110602 72.513649
v -1.990213 -13.178946 72.860634
v 7.034456 1.493024 73.044876
v 11.507183 -15.608507 70.108711
v 35.436691 6.348856 57.660133
v 57.922138 -19.313047 35.483387
v 60.227802 3.382181 41.933372
v 71.288094 -3.399994 17.618851
v 64.820671 17.982224 31.519901
v 68.949669 23.472431 9.115609
v 55.565392 38.802818 33.293377
v 59.502411 43.978615 12.532116
v 44.917423 50.249619 28.992094
v 50.353451 53.248512 7.862744
v 29.204315 56.568748 19.925953
v 32.107540 57.875900 2.451730
v 16.030376 68.184868 4.699731
v 21.551075 63.143372 -13.459213
v 8.828993 70.675728 -10.905937
v -38.473701 -1.997799 66.490067
v -39.595192 27.073071 55.017002
v -16.392740 32.494167 50.854359
v -32.333214 45.079468 32.629002
v -10.540365 50.164726 39.110802
v -16.051716 62.841640 28.859020
v 4.097997 68.303314 21.051048
v -14.193768 68.732071 21.414999
v -12.039501 73.720901 7.350550
v -25.686718 71.185631 -2.880679
v -3.012592 73.844170 -8.230764
v -25.238260 69.368416 -15.974663
v -14.734795 67.079300 -22.787951
v -26.189606 48.732277 -34.264462
v -10.537313 53.069447 -37.115459
v -54.238499 33.924606 6.302215
v -45.988605 44.277023 7.167319
v -47.435616 43.620350 -5.256106
v -50.074280 36.918396 28.620287
v -62.937397 26.116697 18.693966
v -55.549847 25.432045 41.579556
v -65.720619 10.157160 36.801147
v -56.652260 9.533790 50.051693
v -63.495335 -10.491046 35.955528
v -51.920666 -7.843178 52.107925
v -39.270210 -35.056458 48.974049
v -30.663179 -32.429161 58.008713
v -25.277060 -32.187294 57.956154
v 13.540331 -67.600677 -7.461323
v 14.882954 -58.477585 -25.385937
v 37.727375 -48.971146 -24.380741
v 23.124395 -47.542648 -46.424938
v 42.556911 -41.762512 -43.663834
v 30.561438 -36.022736 -58.267124
v 48.208897 -26.854498 -50.787254
v 29.409964 -12.891441 -64.022026
v 45.763390 -8.948601 -55.587708
v 44.613876 12.122914 -57.894081
v 64.701431 -5.200878 -39.683270
v 59.416187 23.868998 -37.912605
v 73.005745 6.891541 -12.917368
v 49.238487 -38.569328 -3.976060
v 44.456593 -41.460663 26.861076
v 35.828480 -52.739853 -4.597102
v 63.162239 -26.613592 13.519191
v 71.251686 -19.793875 -11.344885
v 63.976151 30.750513 -14.587742
v 59.751564 44.726707 -9.404721
v 52.958923 44.177002 -29.927639
v 44.732178 54.153671 -12.465602
v 36.730728 57.085930 -12.808568
v 15.919258 -32.849808 -61.106060
v -6.969649 -37.620735 -60.659245
v -2.217774 -56.372849 -34.687172
v -6.795797 -69.611450 -19.563591
v 12.376900 64.208672 20.743238
v 11.850342 54.999100 33.189575
v 27.537848 50.551758 40.155880
v 8.374019 38.117386 48.029533
v 28.355484 33.420937 57.924404
v 5.822510 18.991299 64.726509
v 1.917426 -64.081665 39.661381
v 22.327757 -55.784401 40.254326
v 26.144951 -45.448471 42.793289
v 26.989803 -32.181396 45.415512
v 0.576654 -39.424324 55.561150
v 11.507183 -15.608507 70.108711
v -1.990213 -13.178946 72.860634
v -4.680912 46.252518 -45.379463
v -6.128338 28.500296 -56.362911
v -27.436596 41.142456 -41.854935
v -25.492342 23.676853 -59.942833
v -49.561764 26.210899 -50.931091
v -30.045715 -40.529541 -49.875629
v -24.644577 -56.825912 -30.414606
v -27.551924 -61.808823 -12.158536
v -10.537313 53.069447 -37.115459
v -26.189606 48.732277 -34.264462
v -40.404255 46.246353 -23.320955
v -52.489758 41.636822 -24.623367
v -47.435616 43.620350 -5.256106
v -54.238499 33.924606 6.302215
v -39.606365 44.945694 21.460014
v -32.915531 58.625587 21.142773
v -38.085266 61.426052 -6.317099
v -65.733185 21.242903 -28.036303
v -69.344627 5.319767 -9.640640
v -69.733643 8.079608 11.174202
v 41.104897 42.970749 47.917656
v 51.229267 24.904139 48.384956
v -43.558830 -43.286095 32.075417
v -25.640406 -41.523563 44.705368
v -20.438961 -59.296696 37.023605
v -59.833191 -35.897602 21.088219
v -43.558830 -43.286095 32.075417
v -69.941574 -16.601137 16.569033
v -69.733643 8.079608 11.174202
v -40.404255 46.246353 -23.320955
v -47.435616 43.620350 -5.256106
v 3.067099 63.170612 -27.948544
v 21.551075 63.143372 -13.459213
v 12.175373 56.004917 -33.247875
v 60.333363 -30.799448 -31.227858
v -43.134216 -50.738907 -21.864765
v 26.989803 -32.181396 45.415512
v -63.623703 23.969294 -3.129368
v -25.640406 -41.523563 44.705368
v -69.941574 -16.601137 16.569033
v -17.459612 -16.727978 68.817833
v -20.116440 -25.337847 63.991356
v -25.277060 -32.187294 57.956154
v -62.937397 26.116697 18.693966

vt -1.311401 0.882935
vt -0.935425 0.992676
vt -1.401245 1.134766
vt -1.145386 0.799805
vt -1.205200 0.655640
vt -1.043091 0.642456
vt -1.017334 0.505005
vt -0.923950 0.501343
vt -0.903198 0.334106
vt -0.809937 0.462158
vt -0.750122 0.301636
vt -0.610474 0.425903
vt -0.591675 0.279175
vt -0.422363 0.368408
vt -0.456421 0.191284
vt -0.270264 0.225708
vt -0.362183 0.113037
vt -0.029419 0.049927
vt -0.439331 -0.026733
vt -0.259399 -0.141968
vt -0.521240 -0.142456
vt -0.452637 -0.274902
vt -0.642822 -0.164795
vt -0.634644 -0.304810
vt -0.904907 -0.257935
vt -0.924316 -0.394165
vt -1.246948 -0.249756
vt -1.070068 -0.602539
vt -2.465210 0.144653
vt -2.503906 0.064209
vt -2.461792 0.040161
vt -2.494263 0.283569
vt -2.387817 0.201538
vt -2.304321 0.276245
vt -2.311157 0.154541
vt -2.132813 0.231323
vt -2.001465 0.126831
vt -1.989014 0.255737
vt -1.808350 0.264526
vt -1.930298 0.377319
vt -1.790161 0.464478
vt -1.957153 0.497681
vt -1.865234 0.600708
vt -2.023315 0.593384
vt -1.867310 0.705444
vt -2.112183 0.660400
vt -1.982788 0.844849
vt -2.173462 0.843140
vt -1.960205 0.999390
vt -2.121216 0.996094
vt -2.669800 0.245605
vt -2.646118 0.436035
vt -2.455933 0.472168
vt -2.566528 0.571777
vt -2.385864 0.598877
vt -2.431641 0.702637
vt -2.297241 0.744751
vt -2.406006 0.756104
vt -2.405762 0.877563
vt -2.545776 0.936523
vt -2.318604 1.011230
vt -2.579224 1.028931
vt -2.548462 1.095215
vt -2.627197 1.227661
vt -2.564331 1.285889
vt -2.849976 0.664917
vt -2.772827 0.795410
vt -2.703735 0.761475
vt -2.747559 0.525146
vt -3.020630 0.546753
vt -2.792969 0.426270
vt -2.882935 0.344238
vt -2.740723 0.328491
vt -2.883179 0.212158
vt -2.776245 0.235229
vt -2.764282 -0.009155
vt -2.639648 0.009766
vt -2.557983 -0.027832
vt -0.897827 -0.161133
vt -0.924438 -0.049683
vt -1.189209 -0.077393
vt -0.923828 0.136353
vt -1.182495 0.100098
vt -1.010498 0.222656
vt -1.186035 0.231689
vt -1.034302 0.359619
vt -1.184326 0.345825
vt -1.182007 0.487915
vt -1.374268 0.311646
vt -1.385376 0.504883
vt -1.653076 0.368896
vt -1.648438 -0.074219
vt -2.066040 -0.048096
vt -1.735718 -0.325806
vt -1.855713 0.044189
vt -1.653076 0.130127
vt -1.653076 0.539551
vt -1.699219 0.702759
vt -1.474121 0.724243
vt -1.700562 0.847656
vt -1.650269 1.000732
vt -0.922485 0.243896
vt -0.809692 0.184082
vt -0.795410 0.062012
vt -0.769897 -0.031982
vt -2.245117 0.714478
vt -2.240356 0.617065
vt -2.146973 0.552246
vt -2.286377 0.494141
vt -2.169678 0.402832
vt -2.314941 0.366089
vt -0.614624 -0.397827
vt -0.915283 -0.502686
vt -0.918701 -0.582642
vt -0.918701 -0.640381
vt -0.605469 -0.568115
vt -0.761353 -0.737061
vt -0.641846 -0.745483
vt -0.843506 0.732666
vt -0.840332 0.603516
vt -0.694214 0.693726
vt -0.750366 0.590332
vt -0.581177 0.542480
vt -0.653198 0.152344
vt -0.649902 0.056396
vt -0.557251 -0.027954
vt -0.787231 0.810913
vt -0.655029 0.755737
vt -0.497681 0.755737
vt -0.440063 0.646118
vt -0.351440 0.761475
vt -0.149902 0.664917
vt -2.643311 0.666382
vt -2.547363 0.713379
vt -2.672607 0.980347
vt -0.422485 0.508423
vt -0.279663 0.387451
vt -0.025391 0.390991
vt -2.053345 0.479858
vt -2.025635 0.357544
vt -0.121460 -0.185913
vt -0.308105 -0.387451
vt -0.400513 -0.335205
vt -3.027710 0.046753
vt -2.916504 -0.060913
vt -3.023804 0.205078
vt -3.022339 0.390625
vt -2.764526 1.170532
vt -2.904663 0.994263
vt -2.275757 1.173096
vt -2.063232 1.134766
vt -2.195190 1.306274
vt -1.402710 0.123291
vt -0.497925 0.078247
vt -2.236938 0.020630
vt -0.239624 0.513672
vt -2.624512 -0.166870
vt -0.025391 0.204956
vt -0.462402 -0.740234
vt -0.439087 -0.632202
vt -0.365234 -0.548340
vt -0.023560 0.548096

vn 0.335757 0.857245 -0.390383
vn 0.137819 0.813365 -0.565193
vn 0.396484 0.885986 -0.240478
vn 0.229678 0.785105 -0.575203
vn 0.453065 0.506898 -0.733339
vn 0.041444 0.526138 -0.849389
vn 0.090393 0.177369 -0.979984
vn 0.054810 0.230838 -0.971447
vn 0.102231 -0.108151 -0.988864
vn -0.033508 0.236938 -0.970947
vn -0.143741 -0.277289 -0.949973
vn -0.533563 0.043212 -0.844656
vn -0.609250 -0.418944 -0.673276
vn -0.907651 -0.137207 -0.396666
vn -0.777730 -0.504347 -0.375193
vn -0.947315 -0.289975 -0.136046
vn -0.860734 -0.495798 -0.115420
vn -0.798149 -0.513850 0.314511
vn -0.670059 -0.741167 -0.041139
vn -0.589788 -0.668035 0.453739
vn -0.462407 -0.886667 0.000732
vn -0.300104 -0.862532 0.407402
vn -0.085691 -0.990206 -0.110226
vn 0.064026 -0.953430 0.294739
vn 0.385188 -0.921924 -0.041076
vn 0.573229 -0.773969 0.269037
vn 0.657540 -0.746104 -0.104738
vn 0.691536 -0.611335 0.384770
vn -0.112424 -0.323783 0.939428
vn -0.129270 -0.461967 0.877426
vn 0.060241 -0.592465 0.803340
vn -0.155704 0.255743 0.954123
vn -0.013916 -0.294122 0.955667
vn 0.236881 0.170291 0.956498
vn 0.346194 -0.349551 0.870611
vn 0.474425 -0.020203 0.880064
vn 0.699584 -0.412536 0.583434
vn 0.736075 -0.099913 0.669486
vn 0.961162 -0.112241 0.252131
vn 0.895810 0.206725 0.393431
vn 0.952748 0.286130 0.101989
vn 0.759287 0.512091 0.401555
vn 0.799078 0.576481 0.170717
vn 0.433281 0.845078 0.313227
vn 0.479732 0.873039 0.087524
vn 0.308421 0.911775 0.271189
vn 0.382383 0.922420 0.054077
vn 0.405085 0.908435 0.103209
vn 0.396484 0.885986 -0.240478
vn 0.318654 0.915681 -0.244926
vn -0.493168 -0.033997 0.869270
vn -0.347539 0.600411 0.720225
vn -0.099672 0.657844 0.746530
vn -0.445921 0.668271 0.595456
vn -0.122438 0.609503 0.783272
vn -0.205927 0.687666 0.696211
vn 0.208373 0.864313 0.457760
vn -0.195308 0.870587 0.451589
vn -0.085691 0.982579 0.164913
vn -0.420721 0.906446 0.036744
vn 0.083437 0.982566 -0.166141
vn -0.397453 0.822920 -0.405997
vn -0.128541 0.796945 -0.590217
vn -0.421268 0.641606 -0.640996
vn -0.170404 0.678747 -0.714329
vn -0.742010 0.668828 0.045716
vn -0.794601 0.590564 0.140866
vn -0.787472 0.616147 0.015808
vn -0.595444 0.754925 0.274835
vn -0.828371 0.551881 0.096070
vn -0.678861 0.560143 0.474751
vn -0.909484 0.165710 0.381286
vn -0.724851 0.141906 0.674131
vn -0.833074 -0.263796 0.486209
vn -0.709542 -0.261295 0.654427
vn -0.528440 -0.633115 0.565611
vn -0.308415 -0.644419 0.699717
vn -0.031188 -0.740405 0.671437
vn 0.388688 -0.861120 -0.327711
vn 0.326535 -0.862235 -0.387203
vn 0.506893 -0.849847 -0.144286
vn 0.191840 -0.834561 -0.516435
vn 0.515624 -0.742553 -0.427490
vn 0.280510 -0.515794 -0.809488
vn 0.628528 -0.326410 -0.705981
vn 0.262505 -0.097470 -0.959995
vn 0.562802 -0.099243 -0.820613
vn 0.506290 0.159852 -0.847418
vn 0.847192 -0.050477 -0.528884
vn 0.813698 0.308707 -0.492540
vn 0.981980 0.123411 -0.143125
vn 0.674567 -0.737922 0.020752
vn 0.691536 -0.611335 0.384770
vn 0.657540 -0.746104 -0.104738
vn 0.789767 -0.584147 0.187188
vn 0.911986 -0.405700 -0.060730
vn 0.914670 0.349242 -0.203491
vn 0.787832 0.599907 -0.139403
vn 0.653738 0.646963 -0.392511
vn 0.419248 0.895257 -0.150817
vn 0.358400 0.927311 -0.107911
vn 0.079957 -0.432254 -0.898200
vn -0.040832 -0.604060 -0.795892
vn 0.016358 -0.807748 -0.589301
vn -0.048768 -0.905283 -0.422001
vn 0.401246 0.803468 0.439820
vn 0.105649 0.760051 0.641218
vn 0.058413 0.847441 0.527667
vn -0.094543 0.657226 0.747741
vn 0.136228 0.437371 0.888903
vn 0.068664 0.503410 0.861315
vn 0.030822 -0.733379 0.679121
vn 0.440374 -0.576973 0.687875
vn 0.536418 -0.297535 0.789765
vn 0.489566 -0.441042 0.752201
vn 0.071655 -0.570312 0.818297
vn 0.346194 -0.349551 0.870611
vn -0.013916 -0.294122 0.955667
vn -0.140503 0.665590 -0.732973
vn -0.078858 0.502507 -0.860969
vn -0.277416 0.712065 -0.644984
vn -0.149780 0.550047 -0.821592
vn -0.548759 0.490960 -0.676626
vn -0.387443 -0.683335 -0.618822
vn -0.315066 -0.809273 -0.495793
vn -0.420466 -0.851795 -0.312496
vn -0.170404 0.678747 -0.714329
vn -0.421268 0.641606 -0.640996
vn -0.525511 0.757506 -0.387328
vn -0.595825 0.776794 -0.203918
vn -0.787472 0.616147 0.015808
vn -0.742010 0.668828 0.045716
vn -0.672903 0.657583 0.338801
vn -0.640180 0.631697 0.437183
vn -0.766371 0.635937 -0.090883
vn -0.908020 0.339600 -0.245300
vn -0.999061 0.020996 -0.037902
vn -0.989956 0.140385 0.016724
vn 0.399477 0.633671 0.662480
vn 0.636707 0.202633 0.744005
vn -0.547603 -0.629634 0.551082
vn -0.295780 -0.699471 0.650581
vn -0.390749 -0.588687 0.707646
vn -0.798149 -0.513850 0.314511
vn -0.547603 -0.629634 0.551082
vn -0.969346 -0.238156 0.060424
vn -0.989956 0.140385 0.016724
vn -0.525511 0.757506 -0.387328
vn -0.787472 0.616147 0.015808
vn 0.145877 0.784868 -0.602247
vn 0.396484 0.885986 -0.240478
vn 0.137819 0.813365 -0.565193
vn 0.774708 -0.571220 -0.271175
vn -0.586561 -0.720353 -0.370186
vn 0.489566 -0.441042 0.752201
vn -0.877177 0.479786 0.019104
vn -0.295780 -0.699471 0.650581
vn -0.969346 -0.238156 0.060424
vn -0.112424 -0.323783 0.939428
vn 0.060241 -0.592465 0.803340
vn -0.031188 -0.740405 0.671437
vn -0.828371 0.551881 0.096070

g polygon0
s 1
usemtl mat1
f 1/1/1 2/2/2 3/3/3
f 1/1/1 4/4/4 2/2/2
f 5/5/5 4/4/4 1/1/1
f 5/5/5 6/6/6 4/4/4
f 7/7/7 6/6/6 5/5/5
f 7/7/7 8/8/8 6/6/6
f 9/9/9 8/8/8 7/7/7
f 9/9/9 10/10/10 8/8/8
f 11/11/11 10/10/10 9/9/9
f 11/11/11 12/12/12 10/10/10
f 13/13/13 12/12/12 11/11/11
f 13/13/13 14/14/14 12/12/12
f 15/15/15 14/14/14 13/13/13
f 15/15/15 16/16/16 14/14/14
f 17/17/17 16/16/16 15/15/15
f 17/17/17 18/18/18 16/16/16
f 19/19/19 18/18/18 17/17/17
f 19/19/19 20/20/20 18/18/18
f 21/21/21 20/20/20 19/19/19
f 21/21/21 22/22/22 20/20/20
f 23/23/23 22/22/22 21/21/21
f 23/23/23 24/24/24 22/22/22
f 25/25/25 24/24/24 23/23/23
f 25/25/25 26/26/26 24/24/24
f 27/27/27 26/26/26 25/25/25
f 27/27/27 28/28/28 26/26/26
f 29/29/29 30/30/30 31/31/31
f 29/29/29 32/32/32 30/30/30
f 33/33/33 32/32/32 29/29/29
f 33/33/33 34/34/34 32/32/32
f 35/35/35 34/34/34 33/33/33
f 35/35/35 36/36/36 34/34/34
f 37/37/37 36/36/36 35/35/35
f 37/37/37 38/38/38 36/36/36
f 39/39/39 38/38/38 37/37/37
f 39/39/39 40/40/40 38/38/38
f 41/41/41 40/40/40 39/39/39
f 41/41/41 42/42/42 40/40/40
f 43/43/43 42/42/42 41/41/41
f 43/43/43 44/44/44 42/42/42
f 45/45/45 44/44/44 43/43/43
f 45/45/45 46/46/46 44/44/44
f 47/47/47 46/46/46 45/45/45
f 47/47/47 48/48/48 46/46/46
f 49/49/49 48/48/48 47/47/47
f 49/49/49 50/50/50 48/48/48
f 32/32/32 51/51/51 30/30/30
f 32/32/32 52/52/52 51/51/51
f 53/53/53 52/52/52 32/32/32
f 53/53/53 54/54/54 52/52/52
f 55/55/55 54/54/54 53/53/53
f 55/55/55 56/56/56 54/54/54
f 57/57/57 56/56/56 55/55/55
f 57/57/57 58/58/58 56/56/56
f 59/59/59 58/58/58 57/57/57
f 59/59/59 60/60/60 58/58/58
f 61/61/61 60/60/60 59/59/59
f 61/61/61 62/62/62 60/60/60
f 63/63/63 62/62/62 61/61/61
f 63/63/63 64/64/64 62/62/62
f 65/65/65 64/64/64 63/63/63
f 66/66/66 67/67/67 68/68/68
f 66/66/66 69/69/69 67/67/67
f 70/70/70 69/69/69 66/66/66
f 70/70/70 71/71/71 69/69/69
f 72/72/72 71/71/71 70/70/70
f 72/72/72 73/73/73 71/71/71
f 74/74/74 73/73/73 72/72/72
f 74/74/74 75/75/75 73/73/73
f 76/76/76 75/75/75 74/74/74
f 76/76/76 51/51/51 75/75/75
f 77/77/77 51/51/51 76/76/76
f 77/77/77 30/30/30 51/51/51
f 78/78/78 30/30/30 77/77/77
f 78/78/78 31/31/31 30/30/30
f 79/79/79 25/25/25 23/23/23
f 79/79/79 27/27/27 25/25/25
f 80/80/80 27/27/27 79/79/79
f 80/80/80 81/81/81 27/27/27
f 82/82/82 81/81/81 80/80/80
f 82/82/82 83/83/83 81/81/81
f 84/84/84 83/83/83 82/82/82
f 84/84/84 85/85/85 83/83/83
f 86/86/86 85/85/85 84/84/84
f 86/86/86 87/87/87 85/85/85
f 88/88/88 87/87/87 86/86/86
f 88/88/88 89/89/89 87/87/87
f 90/90/90 89/89/89 88/88/88
f 90/90/90 91/91/91 89/89/89
f 92/92/92 93/93/93 94/94/94
f 92/92/92 95/95/95 93/93/93
f 96/96/96 95/95/95 92/92/92
f 96/96/96 39/39/39 95/95/95
f 91/91/91 39/39/39 96/96/96
f 91/91/91 41/41/41 39/39/39
f 97/97/97 41/41/41 91/91/91
f 97/97/97 98/98/98 41/41/41
f 99/99/99 98/98/98 97/97/97
f 99/99/99 100/100/100 98/98/98
f 1/1/1 100/100/100 99/99/99
f 1/1/1 101/101/101 100/100/100
f 3/3/3 101/101/101 1/1/1
f 88/88/88 5/5/5 90/90/90
f 88/88/88 7/7/7 5/5/5
f 86/86/86 7/7/7 88/88/88
f 86/86/86 9/9/9 7/7/7
f 102/102/102 9/9/9 86/86/86
f 102/102/102 103/103/103 9/9/9
f 82/82/82 103/103/103 102/102/102
f 82/82/82 104/104/104 103/103/103
f 80/80/80 104/104/104 82/82/82
f 80/80/80 105/105/105 104/104/104
f 79/79/79 105/105/105 80/80/80
f 79/79/79 23/23/23 105/105/105
f 57/57/57 61/61/61 59/59/59
f 57/57/57 48/48/48 61/61/61
f 106/106/106 48/48/48 57/57/57
f 106/106/106 46/46/46 48/48/48
f 107/107/107 46/46/46 106/106/106
f 107/107/107 108/108/108 46/46/46
f 109/109/109 108/108/108 107/107/107
f 109/109/109 110/110/110 108/108/108
f 111/111/111 110/110/110 109/109/109
f 111/111/111 36/36/36 110/110/110
f 34/34/34 36/36/36 111/111/111
f 26/26/26 112/112/112 24/24/24
f 26/26/26 113/113/113 112/112/112
f 28/28/28 113/113/113 26/26/26
f 28/28/28 114/114/114 113/113/113
f 115/115/115 114/114/114 28/28/28
f 115/115/115 116/116/116 114/114/114
f 117/117/117 116/116/116 115/115/115
f 117/117/117 118/118/118 116/116/116
f 6/6/6 2/2/2 4/4/4
f 6/6/6 119/119/119 2/2/2
f 120/120/120 119/119/119 6/6/6
f 120/120/120 121/121/121 119/119/119
f 122/122/122 121/121/121 120/120/120
f 122/122/122 123/123/123 121/121/121
f 12/12/12 123/123/123 122/122/122
f 12/12/12 14/14/14 123/123/123
f 103/103/103 11/11/11 9/9/9
f 103/103/103 124/124/124 11/11/11
f 104/104/104 124/124/124 103/103/103
f 104/104/104 125/125/125 124/124/124
f 105/105/105 125/125/125 104/104/104
f 105/105/105 126/126/126 125/125/125
f 23/23/23 126/126/126 105/105/105
f 23/23/23 21/21/21 126/126/126
f 119/119/119 127/127/127 2/2/2
f 119/119/119 128/128/128 127/127/127
f 121/121/121 128/128/128 119/119/119
f 121/121/121 129/129/129 128/128/128
f 130/130/130 129/129/129 121/121/121
f 130/130/130 131/131/131 129/129/129
f 132/132/132 131/131/131 130/130/130
f 52/52/52 71/71/71 73/73/73
f 52/52/52 69/69/69 71/71/71
f 54/54/54 69/69/69 52/52/52
f 54/54/54 133/133/133 69/69/69
f 134/134/134 133/133/133 54/54/54
f 134/134/134 67/67/67 133/133/133
f 135/135/135 67/67/67 134/134/134
f 111/111/111 32/32/32 34/34/34
f 111/111/111 53/53/53 32/32/32
f 109/109/109 53/53/53 111/111/111
f 109/109/109 55/55/55 53/53/53
f 107/107/107 55/55/55 109/109/109
f 107/107/107 57/57/57 55/55/55
f 106/106/106 57/57/57 107/107/107
f 47/47/47 101/101/101 49/49/49
f 47/47/47 100/100/100 101/101/101
f 45/45/45 100/100/100 47/47/47
f 45/45/45 98/98/98 100/100/100
f 43/43/43 98/98/98 45/45/45
f 43/43/43 41/41/41 98/98/98
f 123/123/123 130/130/130 121/121/121
f 123/123/123 136/136/136 130/130/130
f 14/14/14 136/136/136 123/123/123
f 14/14/14 137/137/137 136/136/136
f 16/16/16 137/137/137 14/14/14
f 16/16/16 138/138/138 137/137/137
f 108/108/108 44/44/44 46/46/46
f 108/108/108 139/139/139 44/44/44
f 110/110/110 139/139/139 108/108/108
f 110/110/110 140/140/140 139/139/139
f 36/36/36 140/140/140 110/110/110
f 36/36/36 38/38/38 140/140/140
f 20/20/20 141/141/141 18/18/18
f 20/20/20 142/142/142 141/141/141
f 143/143/143 142/142/142 20/20/20
f 143/143/143 112/112/112 142/142/142
f 22/22/22 112/112/112 143/143/143
f 22/22/22 24/24/24 112/112/112
f 74/74/74 144/144/144 145/145/145
f 74/74/74 146/146/146 144/144/144
f 72/72/72 146/146/146 74/74/74
f 72/72/72 147/147/147 146/146/146
f 70/70/70 147/147/147 72/72/72
f 148/148/148 62/62/62 64/64/64
f 148/148/148 135/135/135 62/62/62
f 149/149/149 135/135/135 148/148/148
f 149/149/149 67/67/67 135/135/135
f 99/99/99 5/5/5 1/1/1
f 99/99/99 90/90/90 5/5/5
f 97/97/97 90/90/90 99/99/99
f 97/97/97 91/91/91 90/90/90
f 50/50/50 61/61/61 48/48/48
f 50/50/50 150/150/150 61/61/61
f 151/151/151 150/150/150 50/50/50
f 151/151/151 152/152/152 150/150/150
f 89/89/89 85/85/85 87/87/87
f 89/89/89 153/153/153 85/85/85
f 96/96/96 153/153/153 89/89/89
f 96/96/96 92/92/92 153/153/153
f 153/153/153 83/83/83 85/85/85
f 153/153/153 81/81/81 83/83/83
f 92/92/92 81/81/81 153/153/153
f 92/92/92 27/27/27 81/81/81
f 19/19/19 126/126/126 21/21/21
f 19/19/19 154/154/154 126/126/126
f 17/17/17 154/154/154 19/19/19
f 17/17/17 15/15/15 154/154/154
f 154/154/154 125/125/125 126/126/126
f 154/154/154 124/124/124 125/125/125
f 15/15/15 124/124/124 154/154/154
f 15/15/15 13/13/13 124/124/124
f 37/37/37 95/95/95 39/39/39
f 37/37/37 93/93/93 95/95/95
f 155/155/155 93/93/93 37/37/37
f 156/156/156 137/137/137 138/138/138
f 156/156/156 136/136/136 137/137/137
f 130/130/130 136/136/136 156/156/156
f 60/60/60 134/134/134 58/58/58
f 60/60/60 135/135/135 134/134/134
f 62/62/62 135/135/135 60/60/60
f 77/77/77 157/157/157 78/78/78
f 77/77/77 76/76/76 157/157/157
f 76/76/76 145/145/145 157/157/157
f 76/76/76 74/74/74 145/145/145
f 51/51/51 73/73/73 75/75/75
f 51/51/51 52/52/52 73/73/73
f 56/56/56 134/134/134 54/54/54
f 56/56/56 58/58/58 134/134/134
f 158/158/158 16/16/16 18/18/18
f 158/158/158 138/138/138 16/16/16
f 112/112/112 116/116/116 142/142/142
f 112/112/112 113/113/113 116/116/116
f 159/159/159 116/116/116 118/118/118
f 159/159/159 160/160/160 116/116/116
f 161/161/161 116/116/116 160/160/160
f 161/161/161 142/142/142 116/116/116
f 8/8/8 120/120/120 6/6/6
f 8/8/8 10/10/10 120/120/120
f 122/122/122 10/10/10 12/12/12
f 122/122/122 120/120/120 10/10/10
f 65/65/65 150/150/150 152/152/152
f 65/65/65 63/63/63 150/150/150
f 139/139/139 42/42/42 44/44/44
f 139/139/139 140/140/140 42/42/42
f 162/162/162 156/156/156 138/138/138
f 162/162/162 132/132/132 156/156/156
f 40/40/40 140/140/140 38/38/38
f 40/40/40 42/42/42 140/140/140
f 102/102/102 84/84/84 82/82/82
f 102/102/102 86/86/86 84/84/84
f 69/69/69 133/133/133 67/67/67
f 22/22/22 143/143/143 20/20/20
f 114/114/114 116/116/116 113/113/113
f 37/37/37 35/35/35 155/155/155
f 61/61/61 150/150/150 63/63/63
f 130/130/130 156/156/156 132/132/132
f 89/89/89 91/91/91 96/96/96
f 124/124/124 13/13/13 11/11/11

