mtllib stg600_obj_planterA_bp3.mtl

v 3.239367 -1.317060 -5.610838
v -0.000040 -1.317060 -5.623286
v -0.000044 -1.317060 -6.478830
v 2.811590 -1.317060 -4.869903
v 5.610775 -1.317062 -3.239430
v 4.869839 -1.317062 -2.811650
v 6.478766 -1.317062 -0.000025
v 5.623206 -1.317062 -0.000024
v 5.610768 -1.317068 3.239379
v 4.869834 -1.317062 2.811599
v 3.239359 -1.317062 5.610781
v 2.811584 -1.317062 4.869850
v -0.000047 -1.317062 6.478778
v -0.000043 -1.317062 5.623222
v -3.239448 -1.317062 5.610779
v -2.811670 -1.317062 4.869847
v -5.610855 -1.317062 3.239375
v -4.869922 -1.317062 2.811599
v -6.478846 -1.317062 -0.000029
v -5.623293 -1.317062 -0.000030
v -5.610854 -1.317062 -3.239432
v -4.869920 -1.317062 -2.811657
v -3.239446 -1.317060 -5.610843
v -2.811669 -1.317060 -4.869905
v 1.119002 2.613207 -0.646100
v 3.658944 0.637554 -3.659001
v -0.000037 2.613207 -1.292179
v 5.240855 0.637554 -0.000023
v 1.119002 2.613205 0.646051
v 3.658942 0.637554 3.658956
v -0.000040 2.613207 1.292128
v -0.000038 0.637554 5.240864
v -3.659018 0.637554 3.658952
v -0.000044 -1.317060 -6.478830
v 3.658944 0.637554 -3.659001
v 3.239367 -1.317060 -5.610838
v -0.000035 0.637554 -5.240921
v -3.239446 -1.317060 -5.610843
v -3.659017 0.637554 -3.659006
v -5.610854 -1.317062 -3.239432
v -6.478846 -1.317062 -0.000029
v -1.119073 2.613213 0.646053
v -5.240926 0.637554 -0.000029
v -1.119071 2.613207 -0.646100
v -3.659017 0.637554 -3.659006
v 3.239359 -1.317062 5.610781
v -0.000038 0.637554 5.240864
v -0.000047 -1.317062 6.478778
v 3.658942 0.637554 3.658956
v 5.610768 -1.317068 3.239379
v 6.478766 -1.317062 -0.000025
v -3.659018 0.637554 3.658952
v -0.000047 -1.317062 6.478778
v -0.000038 0.637554 5.240864
v -3.239448 -1.317062 5.610779
v -5.610855 -1.317062 3.239375
v -5.240926 0.637554 -0.000029
v -0.000032 8.607107 -0.000021
v 1.119002 2.613207 -0.646100
v -0.000037 2.613207 -1.292179
v 1.119002 2.613205 0.646051
v -0.000040 2.613207 1.292128
v -1.119073 2.613213 0.646053
v -1.119071 2.613207 -0.646100
v -0.000047 2.222609 -0.000027
v 5.240855 0.637554 -0.000023
v 5.610775 -1.317062 -3.239430
v -0.000035 0.637554 -5.240921

vt 1.245361 0.674194
vt 1.408325 0.702759
vt 1.420898 0.674194
vt 1.257813 0.702759
vt 1.420776 0.674194
vt 1.408325 0.702759
vt 1.245117 0.674194
vt 1.257813 0.702759
vt 1.420776 0.674194
vt 1.408325 0.702759
vt 1.245361 0.674194
vt 1.257813 0.702759
vt 1.420898 0.674194
vt 1.408325 0.702759
vt 1.245361 0.674194
vt 1.257813 0.702759
vt 1.420776 0.674194
vt 1.408325 0.702759
vt 1.245117 0.674194
vt 1.257813 0.702759
vt 1.420776 0.674194
vt 1.408325 0.702759
vt 1.245361 0.674194
vt 1.257813 0.702759
vt 0.454834 0.810425
vt 0.610596 0.940674
vt 0.485352 0.759521
vt 0.421143 1.013184
vt 0.395630 0.809326
vt 0.234741 0.934082
vt 0.366943 0.761597
vt 0.156982 0.765137
vt 0.241699 0.939087
vt 0.999756 -0.448853
vt 0.749634 -0.265747
vt 0.833008 -0.448853
vt 0.999756 -0.265747
vt 1.166382 -0.448853
vt 1.249756 -0.265747
vt 1.333130 -0.448853
vt 1.499878 -0.448853
vt 0.397461 0.808838
vt 0.431152 1.011719
vt 0.456665 0.807861
vt 0.617554 0.932617
vt 0.166138 -0.448853
vt 0.000000 -0.265747
vt 0.000000 -0.448853
vt 0.249390 -0.265747
vt 0.332764 -0.448853
vt 0.499512 -0.448853
vt 1.750000 -0.265747
vt 2.000000 -0.448853
vt 2.000000 -0.265747
vt 1.833252 -0.448853
vt 1.666626 -0.448853
vt 1.499878 -0.265747
vt -0.003662 0.992676
vt -0.020874 0.407715
vt -0.038208 0.407715
vt 0.013672 0.407715
vt 0.031006 0.407715
vt 0.013672 0.407715
vt -0.020874 0.407715
vt 1.333008 0.835327
vt 0.499512 -0.265747
vt 0.666260 -0.448853
vt 0.695313 0.755859

vn 0.403268 -0.382210 -0.831439
vn 0.000000 -0.972338 0.233578
vn 0.037842 -0.417976 -0.907670
vn -0.116820 -0.972338 0.202268
vn 0.799490 -0.408199 -0.440669
vn -0.202269 -0.972345 0.116760
vn 0.907670 -0.417976 0.037842
vn -0.233578 -0.972338 0.000000
vn 0.831439 -0.382210 0.403268
vn -0.202268 -0.972338 -0.116820
vn 0.440669 -0.408199 0.799490
vn -0.116760 -0.972345 -0.202269
vn -0.037842 -0.417976 0.907670
vn 0.000000 -0.972338 -0.233578
vn -0.403268 -0.382210 0.831439
vn 0.116820 -0.972338 -0.202268
vn -0.799490 -0.408199 0.440669
vn 0.202269 -0.972345 -0.116760
vn -0.907670 -0.417976 -0.037842
vn 0.233578 -0.972338 0.000000
vn -0.831439 -0.382210 -0.403268
vn 0.202269 -0.972345 0.116760
vn -0.440669 -0.408199 -0.799490
vn 0.116820 -0.972338 0.202268
vn 0.608775 0.708141 -0.357672
vn 0.467339 0.737050 -0.488213
vn 0.000000 0.704140 -0.710061
vn 0.693595 0.719839 0.027527
vn 0.608775 0.708141 0.357672
vn 0.486701 0.737071 0.468879
vn 0.000000 0.704110 0.710091
vn -0.027527 0.721933 0.691415
vn -0.467339 0.737050 0.488213
vn 0.037842 -0.417976 -0.907670
vn 0.467339 0.737050 -0.488213
vn 0.403268 -0.382210 -0.831439
vn 0.027527 0.721933 -0.691415
vn -0.440669 -0.408199 -0.799490
vn -0.486701 0.737071 -0.468879
vn -0.831439 -0.382210 -0.403268
vn -0.907670 -0.417976 -0.037842
vn -0.608775 0.708141 0.357672
vn -0.693595 0.719839 -0.027527
vn -0.608775 0.708141 -0.357672
vn -0.486701 0.737071 -0.468879
vn 0.440669 -0.408199 0.799490
vn -0.027527 0.721933 0.691415
vn -0.037842 -0.417976 0.907670
vn 0.486701 0.737071 0.468879
vn 0.831439 -0.382210 0.403268
vn 0.907670 -0.417976 0.037842
vn -0.467339 0.737050 0.488213
vn -0.037842 -0.417976 0.907670
vn -0.027527 0.721933 0.691415
vn -0.403268 -0.382210 0.831439
vn -0.799490 -0.408199 0.440669
vn -0.693595 0.719839 -0.027527
vn 0.000000 1.000000 0.000000
vn 0.608775 0.708141 -0.357672
vn 0.000000 0.704140 -0.710061
vn 0.608775 0.708141 0.357672
vn 0.000000 0.704110 0.710091
vn -0.608775 0.708141 0.357672
vn -0.608775 0.708141 -0.357672
vn 0.000000 -1.000000 0.000000
vn 0.693595 0.719839 0.027527
vn 0.799490 -0.408199 -0.440669
vn 0.027527 0.721933 -0.691415

g polygon0
s 1
usemtl mat1
f 1/1/1 2/2/2 3/3/3
f 1/1/1 4/4/4 2/2/2
f 5/5/5 4/4/4 1/1/1
f 5/5/5 6/6/6 4/4/4
f 7/7/7 6/6/6 5/5/5
f 7/7/7 8/8/8 6/6/6
f 9/9/9 8/8/8 7/7/7
f 9/9/9 10/10/10 8/8/8
f 11/11/11 10/10/10 9/9/9
f 11/11/11 12/12/12 10/10/10
f 13/13/13 12/12/12 11/11/11
f 13/13/13 14/14/14 12/12/12
f 15/15/15 14/14/14 13/13/13
f 15/15/15 16/16/16 14/14/14
f 17/17/17 16/16/16 15/15/15
f 17/17/17 18/18/18 16/16/16
f 19/19/19 18/18/18 17/17/17
f 19/19/19 20/20/20 18/18/18
f 21/21/21 20/20/20 19/19/19
f 21/21/21 22/22/22 20/20/20
f 23/23/23 22/22/22 21/21/21
f 23/23/23 24/24/24 22/22/22
f 3/3/3 24/24/24 23/23/23
f 3/3/3 2/2/2 24/24/24
f 25/25/25 26/26/26 27/27/27
f 25/25/25 28/28/28 26/26/26
f 29/29/29 28/28/28 25/25/25
f 29/29/29 30/30/30 28/28/28
f 31/31/31 30/30/30 29/29/29
f 31/31/31 32/32/32 30/30/30
f 33/33/33 32/32/32 31/31/31
f 34/34/34 35/35/35 36/36/36
f 34/34/34 37/37/37 35/35/35
f 38/38/38 37/37/37 34/34/34
f 38/38/38 39/39/39 37/37/37
f 40/40/40 39/39/39 38/38/38
f 40/40/40 41/41/41 39/39/39
f 42/42/42 33/33/33 31/31/31
f 42/42/42 43/43/43 33/33/33
f 44/44/44 43/43/43 42/42/42
f 44/44/44 45/45/45 43/43/43
f 27/27/27 45/45/45 44/44/44
f 46/46/46 47/47/47 48/48/48
f 46/46/46 49/49/49 47/47/47
f 50/50/50 49/49/49 46/46/46
f 50/50/50 51/51/51 49/49/49
f 52/52/52 53/53/53 54/54/54
f 52/52/52 55/55/55 53/53/53
f 56/56/56 55/55/55 52/52/52
f 57/57/57 56/56/56 52/52/52
f 57/57/57 41/41/41 56/56/56
f 39/39/39 41/41/41 57/57/57
f 58/58/58 59/59/59 60/60/60
f 58/58/58 61/61/61 59/59/59
f 62/62/62 61/61/61 58/58/58
f 58/58/58 63/63/63 62/62/62
f 58/58/58 64/64/64 63/63/63
f 60/60/60 64/64/64 58/58/58
f 65/65/65 2/2/2 4/4/4
f 65/65/65 24/24/24 2/2/2
f 22/22/22 24/24/24 65/65/65
f 51/51/51 66/66/66 49/49/49
f 51/51/51 67/67/67 66/66/66
f 67/67/67 35/35/35 66/66/66
f 67/67/67 36/36/36 35/35/35
f 68/68/68 27/27/27 26/26/26
f 68/68/68 45/45/45 27/27/27
f 6/6/6 65/65/65 4/4/4
f 6/6/6 8/8/8 65/65/65
f 10/10/10 65/65/65 8/8/8
f 10/10/10 12/12/12 65/65/65
f 14/14/14 65/65/65 12/12/12
f 14/14/14 16/16/16 65/65/65
f 18/18/18 65/65/65 16/16/16
f 18/18/18 20/20/20 65/65/65
f 20/20/20 22/22/22 65/65/65

