mtllib stg600_obj_tankA_bp2.mtl

v 3.899670 -0.697775 -1.615322
v -1.615268 -0.697775 -3.899730
v 1.615262 -0.697775 -3.899733
v -3.899675 -0.697775 -1.615320
v 3.899670 -0.697775 1.615323
v -3.899674 -0.697775 1.615324
v 1.615262 -0.697775 3.899732
v -1.615265 -0.697775 3.899734
v 1.591005 -0.238895 3.841166
v 2.547933 0.825636 1.055403
v 1.055370 0.825636 2.547970
v 3.841105 -0.238895 1.591064
v 3.899670 -0.697775 1.615323
v 3.841105 -0.238895 -1.591063
v 3.899670 -0.697775 -1.615322
v -3.841109 -0.238895 1.591065
v -1.055365 0.825636 2.547971
v -2.547929 0.825636 1.055404
v -1.591008 -0.238895 3.841168
v -1.615265 -0.697775 3.899734
v 1.615262 -0.697775 3.899732
v 3.841105 -0.238895 -1.591063
v 1.055367 0.825636 -2.547973
v 2.547933 0.825636 -1.055406
v 1.591002 -0.238895 -3.841167
v 3.899670 -0.697775 -1.615322
v 1.615262 -0.697775 -3.899733
v -1.055365 0.825636 -2.547972
v -1.591008 -0.238895 -3.841164
v -1.615268 -0.697775 -3.899730
v -3.899675 -0.697775 -1.615320
v -2.547929 0.825636 -1.055405
v -3.841109 -0.238895 -1.591061
v -3.899674 -0.697775 1.615324
v -2.547929 0.825636 1.055404
v -3.841109 -0.238895 1.591065
v 0.000002 1.395552 -0.000001
v 2.547933 0.825636 1.055403
v 2.547933 0.825636 -1.055406
v 1.055370 0.825636 2.547970
v -1.055365 0.825636 2.547971
v -2.547929 0.825636 1.055404
v -2.547929 0.825636 -1.055405
v -1.055365 0.825636 -2.547972
v 2.547933 0.825636 -1.055406
v 1.055367 0.825636 -2.547973
v -3.899674 -0.697775 1.615324

vt 1.289917 0.830811
vt 1.119507 0.760132
vt 1.219360 0.760132
vt 1.048950 0.830811
vt 1.289917 0.930664
vt 1.048950 0.930664
vt 1.219360 1.001221
vt 1.119507 1.001221
vt -1.563965 0.657593
vt -1.437012 0.728149
vt -1.561523 0.728149
vt -1.441284 0.657593
vt -1.441650 0.639648
vt -1.236572 0.657837
vt -1.235596 0.639526
vt -1.912476 0.657349
vt -1.760132 0.728149
vt -1.906128 0.728638
vt -1.764282 0.657593
vt -1.764648 0.639648
vt -1.563965 0.639648
vt -1.912476 0.657349
vt -1.760132 0.728149
vt -1.906128 0.728638
vt -1.764282 0.657593
vt -1.913330 0.639893
vt -1.764648 0.639648
vt -1.561523 0.728149
vt -1.563965 0.657593
vt -1.563965 0.639648
vt -1.441650 0.639648
vt -1.437012 0.728149
vt -1.441284 0.657593
vt -1.235596 0.639526
vt -1.237061 0.727661
vt -1.236572 0.657837
vt -0.678711 0.880859
vt -0.820557 0.941528
vt -0.820923 0.820435
vt -0.737305 1.027222
vt -0.620605 1.027832
vt -0.537109 0.941895
vt -0.536743 0.820679
vt -0.619873 0.735474
vt -1.237061 0.727661
vt -0.737915 0.735229
vt -1.913330 0.639893

vn 0.000000 -1.000000 0.000000
vn 0.000000 -1.000000 0.000000
vn 0.000000 -1.000000 0.000000
vn 0.000000 -1.000000 0.000000
vn 0.000000 -1.000000 0.000000
vn 0.000000 -1.000000 0.000000
vn 0.000000 -1.000000 0.000000
vn 0.000000 -1.000000 0.000000
vn 0.344086 0.469208 0.813295
vn 0.421721 0.890299 0.171812
vn 0.171812 0.890299 0.421721
vn 0.813295 0.469208 0.344086
vn 0.917185 0.139910 0.373092
vn 0.813295 0.469208 -0.344086
vn 0.917185 0.139910 -0.373092
vn -0.813295 0.469208 0.344086
vn -0.171812 0.890299 0.421721
vn -0.421721 0.890299 0.171812
vn -0.344086 0.469208 0.813295
vn -0.373092 0.139910 0.917185
vn 0.373092 0.139910 0.917185
vn 0.813295 0.469208 -0.344086
vn 0.171812 0.890299 -0.421721
vn 0.421721 0.890299 -0.171812
vn 0.344086 0.469208 -0.813295
vn 0.917185 0.139910 -0.373092
vn 0.373092 0.139910 -0.917185
vn -0.171812 0.890299 -0.421721
vn -0.344086 0.469208 -0.813295
vn -0.373092 0.139910 -0.917185
vn -0.917185 0.139910 -0.373092
vn -0.421721 0.890299 -0.171812
vn -0.813295 0.469208 -0.344086
vn -0.917185 0.139910 0.373092
vn -0.421721 0.890299 0.171812
vn -0.813295 0.469208 0.344086
vn 0.000000 1.000000 0.000000
vn 0.421721 0.890299 0.171812
vn 0.421721 0.890299 -0.171812
vn 0.171812 0.890299 0.421721
vn -0.171812 0.890299 0.421721
vn -0.421721 0.890299 0.171812
vn -0.421721 0.890299 -0.171812
vn -0.171812 0.890299 -0.421721
vn 0.421721 0.890299 -0.171812
vn 0.171812 0.890299 -0.421721
vn -0.917185 0.139910 0.373092

g polygon0
s 1
usemtl mat1
f 1/1/1 2/2/2 3/3/3
f 1/1/1 4/4/4 2/2/2
f 5/5/5 4/4/4 1/1/1
f 5/5/5 6/6/6 4/4/4
f 7/7/7 6/6/6 5/5/5
f 7/7/7 8/8/8 6/6/6
f 9/9/9 10/10/10 11/11/11
f 9/9/9 12/12/12 10/10/10
f 13/13/13 12/12/12 9/9/9
f 13/13/13 14/14/14 12/12/12
f 15/15/15 14/14/14 13/13/13
f 16/16/16 17/17/17 18/18/18
f 16/16/16 19/19/19 17/17/17
f 20/20/20 19/19/19 16/16/16
f 20/20/20 21/21/21 19/19/19
f 19/19/19 11/11/11 17/17/17
f 19/19/19 9/9/9 11/11/11
f 21/21/21 9/9/9 19/19/19
f 21/21/21 13/13/13 9/9/9
f 22/22/22 23/23/23 24/24/24
f 22/22/22 25/25/25 23/23/23
f 26/26/26 25/25/25 22/22/22
f 26/26/26 27/27/27 25/25/25
f 25/25/25 28/28/28 23/23/23
f 25/25/25 29/29/29 28/28/28
f 30/30/30 29/29/29 25/25/25
f 30/30/30 31/31/31 29/29/29
f 29/29/29 32/32/32 28/28/28
f 29/29/29 33/33/33 32/32/32
f 31/31/31 33/33/33 29/29/29
f 31/31/31 34/34/34 33/33/33
f 33/33/33 35/35/35 32/32/32
f 33/33/33 36/36/36 35/35/35
f 34/34/34 36/36/36 33/33/33
f 37/37/37 38/38/38 39/39/39
f 37/37/37 40/40/40 38/38/38
f 41/41/41 40/40/40 37/37/37
f 37/37/37 42/42/42 41/41/41
f 37/37/37 43/43/43 42/42/42
f 44/44/44 43/43/43 37/37/37
f 45/45/45 12/12/12 14/14/14
f 45/45/45 10/10/10 12/12/12
f 37/37/37 46/46/46 44/44/44
f 37/37/37 39/39/39 46/46/46
f 47/47/47 20/20/20 16/16/16
f 27/27/27 30/30/30 25/25/25

v -4.714155 2.399422 2.321663
v -4.971191 2.399422 1.744347
v -4.311767 4.179873 1.784148
v -4.972141 1.355623 1.456300
v -4.491276 1.355623 2.536340
v -4.329227 0.685606 1.020037
v -3.718283 0.685606 2.392240
v -2.761760 0.624378 0.183337
v -2.015091 0.626949 1.869227
v -4.613497 -0.473364 1.968697
v -2.761760 0.624378 0.183337
v -2.717713 -0.601990 1.174844
v -4.329227 0.685606 1.020037
v -5.545680 1.066780 2.358628
v -4.972141 1.355623 1.456300
v -4.971191 2.399422 1.744347
v -0.075535 -0.499115 -4.922827
v 0.890463 0.601194 -2.508606
v -0.029670 -0.627737 -2.868050
v 0.675508 0.659855 -4.277277
v -0.098468 1.041029 -5.933016
v 0.492745 1.329870 -5.042054
v 0.205975 2.373671 -5.158345
v 4.601348 -0.475502 1.965756
v 4.959989 1.353489 1.453358
v 5.533529 1.064642 2.355687
v 4.317076 0.683468 1.017096
v 2.749608 0.622240 0.180396
v -4.714155 2.399422 2.321663
v -5.545680 1.066780 2.358628
v -4.491276 1.355623 2.536340
v -5.264824 2.694376 2.221030
v -4.311767 4.179873 1.784148
v -0.425975 2.373671 -5.158345
v -0.098468 1.041029 -5.933016
v -0.689506 1.329870 -5.042053
v -0.109936 2.668623 -5.620475
v -0.121404 4.154121 -4.572119
v 4.479125 1.353485 2.533399
v 4.601348 -0.475502 1.965756
v 5.533529 1.064642 2.355687
v 3.706129 0.683470 2.389298
v -5.264824 2.694376 2.221030
v -4.311767 4.179873 1.784148
v -2.015091 0.626949 1.869227
v -4.613497 -0.473364 1.968697
v -2.717713 -0.601990 1.174844
v -3.718283 0.685606 2.392240
v 2.002939 0.624811 1.866287
v 2.705560 -0.604124 1.171902
v 4.959989 1.353489 1.453358
v 4.479125 1.353485 2.533399
v 5.533529 1.064642 2.355687
v 4.317076 0.683468 1.017096
v 3.706129 0.683470 2.389298
v 2.749608 0.622240 0.180396
v -0.953372 0.598623 -2.505009
v -0.075535 -0.499115 -4.922827
v -0.029670 -0.627737 -2.868050
v -0.826555 0.659855 -4.277277
v -0.425975 2.373671 -5.158345
v 0.205975 2.373671 -5.158345
v -0.121404 4.154121 -4.572119
v -0.689506 1.329870 -5.042053
v 0.492745 1.329870 -5.042054
v -0.826555 0.659855 -4.277277
v 0.675508 0.659855 -4.277277
v -0.953372 0.598623 -2.505009
v -0.109936 2.668623 -5.620475
v -0.121404 4.154121 -4.572119
v 2.705560 -0.604124 1.171902
v 2.002939 0.624811 1.866287
v 0.890463 0.601194 -2.508606

vt 0.569824 -1.101135
vt 0.569763 -1.125610
vt 0.455200 -1.113281
vt 0.684814 -1.142334
vt 0.684937 -1.084167
vt 0.840759 -1.157288
vt 0.840698 -1.069092
vt 0.969849 -1.174561
vt 0.969849 -1.051086
vt 0.837463 -1.113220
vt 0.969849 -1.174561
vt 0.969849 -1.117310
vt 0.840759 -1.157288
vt 0.693848 -1.113281
vt 0.684814 -1.142334
vt 0.569763 -1.125610
vt 0.837463 -1.113220
vt 1.014221 -1.051086
vt 1.014221 -1.117310
vt 0.840698 -1.069092
vt 0.693848 -1.113281
vt 0.684937 -1.084167
vt 0.569824 -1.101135
vt 0.837463 -1.364014
vt 0.684814 -1.393066
vt 0.693848 -1.364014
vt 0.840759 -1.408020
vt 0.969849 -1.425293
vt 0.569824 -1.101135
vt 0.693848 -1.113281
vt 0.684937 -1.084167
vt 0.569824 -1.113281
vt 0.455200 -1.113281
vt 0.569763 -1.125610
vt 0.693848 -1.113281
vt 0.684814 -1.142334
vt 0.569824 -1.113281
vt 0.455200 -1.113281
vt 0.684937 -1.334900
vt 0.837463 -1.364014
vt 0.693848 -1.364014
vt 0.840698 -1.319824
vt 0.569824 -1.113281
vt 0.455200 -1.113281
vt 0.969849 -1.051086
vt 0.837463 -1.113220
vt 0.969849 -1.117310
vt 0.840698 -1.069092
vt 0.969849 -1.301819
vt 0.969849 -1.368042
vt 0.684814 -1.393066
vt 0.684937 -1.334900
vt 0.569824 -1.351868
vt 0.840759 -1.408020
vt 0.840698 -1.319824
vt 0.969849 -1.425293
vt 1.014221 -1.174561
vt 0.837463 -1.113220
vt 1.014221 -1.117310
vt 0.840759 -1.157288
vt 0.569763 -1.125610
vt 0.569824 -1.101135
vt 0.455200 -1.113281
vt 0.684814 -1.142334
vt 0.684937 -1.084167
vt 0.840759 -1.157288
vt 0.840698 -1.069092
vt 1.014221 -1.174561
vt 0.569824 -1.113281
vt 0.455200 -1.113281
vt 0.969849 -1.368042
vt 0.969849 -1.301819
vt 1.014221 -1.051086

vn 0.911045 -0.073911 -0.405628
vn 0.910895 -0.075989 -0.405581
vn 0.867718 -0.312737 -0.386344
vn 0.788325 0.505307 -0.351011
vn 0.784672 0.512087 -0.349367
vn 0.316029 0.938261 -0.140681
vn 0.306341 0.942034 -0.136843
vn 0.030639 0.999426 -0.014465
vn 0.029907 0.999444 -0.014770
vn -0.577096 -0.443061 -0.686045
vn -0.374072 -0.565044 -0.735388
vn -0.343801 -0.597822 -0.724161
vn -0.580875 -0.429873 -0.691227
vn -0.811734 -0.116520 -0.572285
vn -0.816406 -0.133789 -0.561767
vn -0.799916 0.172788 -0.574699
vn 0.860345 -0.425900 -0.280027
vn 0.830021 -0.551882 -0.080567
vn 0.806897 -0.588144 -0.054810
vn 0.868851 -0.409431 -0.278325
vn 0.849987 -0.094850 -0.518195
vn 0.844006 -0.105348 -0.525886
vn 0.850226 0.183961 -0.493229
vn 0.575755 -0.447517 -0.684277
vn 0.745909 -0.311218 -0.588866
vn 0.754326 -0.310056 -0.578669
vn 0.574903 -0.429209 -0.696610
vn 0.374072 -0.565044 -0.735388
vn -0.104795 0.183956 0.977332
vn -0.127621 -0.094846 0.987278
vn -0.137147 -0.105348 0.984933
vn -0.065855 0.209895 0.975504
vn -0.017944 0.292661 0.956048
vn -0.850361 0.172794 -0.497020
vn -0.852969 -0.116516 -0.508791
vn -0.845265 -0.133787 -0.517327
vn -0.863510 0.199520 -0.463187
vn -0.866212 0.283631 -0.411377
vn 0.078247 -0.290709 0.953607
vn -0.094057 -0.426949 0.899371
vn 0.081117 -0.290469 0.953440
vn -0.100892 -0.409303 0.906803
vn -0.774357 0.199525 -0.600467
vn -0.728130 0.283623 -0.624007
vn 0.263982 -0.551891 0.791031
vn 0.094118 -0.425911 0.899857
vn 0.278131 -0.588122 0.759444
vn 0.099184 -0.409430 0.906934
vn -0.263982 -0.551891 0.791031
vn -0.278131 -0.588122 0.759444
vn -0.311396 0.940108 -0.138669
vn -0.317068 0.937837 -0.141170
vn 0.281745 0.951256 0.125430
vn -0.316029 0.938261 -0.140681
vn -0.306341 0.942034 -0.136843
vn -0.030639 0.999426 -0.014465
vn -0.823956 -0.565051 -0.042602
vn -0.861458 -0.443058 -0.248171
vn -0.801383 -0.597833 -0.019531
vn -0.867732 -0.429868 -0.249510
vn 0.000000 -0.075987 0.997109
vn 0.000000 -0.073914 0.997265
vn 0.000000 -0.312747 0.949837
vn 0.000000 0.505320 0.862932
vn 0.000000 0.512079 0.858938
vn 0.000000 0.938259 0.345934
vn -0.000366 0.942034 0.335517
vn -0.000732 0.999426 0.033874
vn 0.864390 0.209902 -0.456915
vn 0.866085 0.292662 -0.405272
vn 0.343801 -0.597822 -0.724161
vn -0.029907 0.999444 -0.014770
vn -0.001343 0.999444 0.033325

g polygon1
s 1
usemtl mat2
f 48/48/48 49/49/49 50/50/50
f 48/48/48 51/51/51 49/49/49
f 52/52/52 51/51/51 48/48/48
f 52/52/52 53/53/53 51/51/51
f 54/54/54 53/53/53 52/52/52
f 54/54/54 55/55/55 53/53/53
f 56/56/56 55/55/55 54/54/54
f 57/57/57 58/58/58 59/59/59
f 57/57/57 60/60/60 58/58/58
f 61/61/61 60/60/60 57/57/57
f 61/61/61 62/62/62 60/60/60
f 63/63/63 62/62/62 61/61/61
f 64/64/64 65/65/65 66/66/66
f 64/64/64 67/67/67 65/65/65
f 68/68/68 67/67/67 64/64/64
f 68/68/68 69/69/69 67/67/67
f 70/70/70 69/69/69 68/68/68
f 71/71/71 72/72/72 73/73/73
f 71/71/71 74/74/74 72/72/72
f 75/75/75 74/74/74 71/71/71
f 76/76/76 77/77/77 78/78/78
f 76/76/76 79/79/79 77/77/77
f 80/80/80 79/79/79 76/76/76
f 81/81/81 82/82/82 83/83/83
f 81/81/81 84/84/84 82/82/82
f 85/85/85 84/84/84 81/81/81
f 86/86/86 87/87/87 88/88/88
f 86/86/86 89/89/89 87/87/87
f 90/90/90 63/63/63 61/61/61
f 90/90/90 91/91/91 63/63/63
f 92/92/92 93/93/93 94/94/94
f 92/92/92 95/95/95 93/93/93
f 95/95/95 77/77/77 93/93/93
f 95/95/95 78/78/78 77/77/77
f 96/96/96 87/87/87 89/89/89
f 96/96/96 97/97/97 87/87/87
f 98/98/98 99/99/99 100/100/100
f 98/98/98 101/101/101 99/99/99
f 101/101/101 102/102/102 99/99/99
f 101/101/101 103/103/103 102/102/102
f 104/104/104 105/105/105 106/106/106
f 104/104/104 107/107/107 105/105/105
f 108/108/108 109/109/109 110/110/110
f 108/108/108 111/111/111 109/109/109
f 111/111/111 112/112/112 109/109/109
f 111/111/111 113/113/113 112/112/112
f 113/113/113 114/114/114 112/112/112
f 113/113/113 115/115/115 114/114/114
f 107/107/107 82/82/82 105/105/105
f 107/107/107 83/83/83 82/82/82
f 116/116/116 70/70/70 68/68/68
f 116/116/116 117/117/117 70/70/70
f 118/118/118 75/75/75 71/71/71
f 119/119/119 102/102/102 103/103/103
f 120/120/120 114/114/114 115/115/115

