mtllib stg600_obj_planterA_bp1.mtl

v 2.619900 1.817928 -2.619889
v 3.313409 3.956701 -5.739003
v 5.739014 3.956701 -3.313403
v -0.000024 1.817928 -3.835798
v -0.000024 0.709476 -0.937149
v -2.619948 1.817928 -2.619887
v -0.937209 0.709476 0.000037
v -3.835858 1.817928 0.000037
v -2.619947 1.817928 2.619962
v -5.739062 3.956701 3.313473
v -3.313460 3.956701 5.739077
v -6.699865 6.840341 0.000038
v -7.864756 6.840341 0.000038
v -6.811082 6.840341 3.932404
v -6.811082 6.840341 -3.932328
v -5.802257 6.840341 -3.349883
v -3.932393 6.840341 -6.811020
v -3.349947 6.840341 -5.802195
v -0.000026 6.840341 -6.699804
v -0.000027 6.840341 -7.864696
v 3.932340 6.840341 -6.811024
v 3.349895 6.840341 -5.802198
v 6.811033 6.840341 -3.932334
v 5.802209 6.840341 -3.349887
v 6.699820 6.840341 0.000037
v -0.000024 -5.500968 1.727617
v -3.251875 -7.887556 5.632407
v -0.000024 -7.887556 6.503738
v -5.632393 -7.887556 3.251888
v -1.727603 -5.500968 0.000037
v -6.503725 -7.887556 0.000037
v -5.632393 -7.887556 -3.251812
v -0.000024 0.709476 0.937223
v -0.000024 1.817928 3.835872
v 2.619901 1.817928 2.619962
v 3.313411 3.956701 5.739077
v 5.739015 3.956701 3.313473
v 3.835813 1.817928 0.000037
v 6.626849 3.956701 0.000037
v 0.937163 0.709476 0.000037
v -3.349945 6.840341 5.802271
v -3.932391 6.840341 6.811095
v -0.000024 6.840341 6.699880
v -5.802256 6.840341 3.349959
v -0.000024 -5.500968 -1.727543
v -0.000026 -7.887556 -6.503664
v -3.251876 -7.887556 -5.632331
v 3.251824 -7.887556 -5.632333
v 5.632345 -7.887556 -3.251817
v 3.932343 6.840341 6.811096
v 3.349898 6.840341 5.802272
v -0.000024 6.840341 7.864771
v 1.727557 -5.500968 0.000037
v 6.503678 -7.887556 0.000037
v 5.632347 -7.887556 3.251888
v -0.000026 3.956701 -6.626834
v -3.313462 3.956701 -5.739001
v 3.251824 -7.887556 -5.632333
v 5.632345 -8.537838 -3.251817
v 3.251824 -8.537838 -5.632333
v 5.632345 -7.887556 -3.251817
v -0.000026 -7.887556 -6.503664
v 3.251824 -8.537838 -5.632333
v -0.000026 -8.537838 -6.503664
v 3.251824 -7.887556 -5.632333
v -3.251876 -7.887556 -5.632331
v -0.000026 -8.537838 -6.503664
v -3.251876 -8.537838 -5.632331
v -0.000026 -7.887556 -6.503664
v -5.632393 -7.887556 -3.251812
v -3.251876 -8.537838 -5.632331
v -5.632393 -8.537838 -3.251812
v -3.251876 -7.887556 -5.632331
v -6.503725 -7.887556 0.000037
v -5.632393 -8.537838 -3.251812
v -6.503725 -8.537838 0.000037
v -5.632393 -7.887556 -3.251812
v -5.632393 -7.887556 3.251888
v -6.503725 -8.537838 0.000037
v -5.632393 -8.537838 3.251888
v -6.503725 -7.887556 0.000037
v -3.251875 -7.887556 5.632407
v -5.632393 -8.537838 3.251888
v -3.251875 -8.537838 5.632407
v -5.632393 -7.887556 3.251888
v -0.000024 -7.887556 6.503738
v -3.251875 -8.537838 5.632407
v -0.000024 -8.537838 6.503738
v -3.251875 -7.887556 5.632407
v 3.251826 -7.887556 5.632407
v -0.000024 -8.537838 6.503738
v 3.251826 -8.537838 5.632407
v -0.000024 -7.887556 6.503738
v 5.632347 -7.887556 3.251888
v 3.251826 -8.537838 5.632407
v 5.632347 -8.537838 3.251888
v 3.251826 -7.887556 5.632407
v 6.503678 -7.887556 0.000037
v 5.632347 -8.537838 3.251888
v 6.503678 -8.537838 0.000037
v 5.632347 -7.887556 3.251888
v 6.699820 6.840341 0.000037
v 6.811036 6.840341 3.932404
v 7.864711 6.840341 0.000037
v 5.802211 6.840341 3.349959
v 3.251826 -7.887556 5.632407
v -0.000024 -5.500968 1.727617
v -5.632393 -8.537838 -3.251812
v -5.632393 -8.537838 3.251888
v -6.503725 -8.537838 0.000037
v -3.251876 -8.537838 -5.632331
v -3.251875 -8.537838 5.632407
v -0.000026 -8.537838 -6.503664
v -0.000024 -8.537838 6.503738
v 3.251824 -8.537838 -5.632333
v 3.251826 -8.537838 5.632407
v 5.632345 -8.537838 -3.251817
v 5.632347 -8.537838 3.251888
v 6.503678 -8.537838 0.000037
v 0.937163 0.709476 0.000037
v 3.835813 1.817928 0.000037
v -0.000024 3.956701 6.626910
v -6.626893 3.956701 0.000037
v -5.739063 3.956701 -3.313397
v 6.626849 3.956701 0.000037
v 5.632345 -7.887556 -3.251817
v 6.503678 -8.537838 0.000037
v 5.632345 -8.537838 -3.251817
v 6.503678 -7.887556 0.000037
v 6.626849 3.956701 0.000037
v 6.811033 6.840341 -3.932334
v 7.864711 6.840341 0.000037
v 5.739014 3.956701 -3.313403
v 3.932340 6.840341 -6.811024
v 3.313409 3.956701 -5.739003
v -0.000027 6.840341 -7.864696
v -0.000026 3.956701 -6.626834
v -3.932393 6.840341 -6.811020
v -3.313462 3.956701 -5.739001
v -6.811082 6.840341 -3.932328
v -5.739063 3.956701 -3.313397
v -7.864756 6.840341 0.000038
v -6.626893 3.956701 0.000037
v -6.811082 6.840341 3.932404
v -5.739062 3.956701 3.313473
v -3.932391 6.840341 6.811095
v -3.313460 3.956701 5.739077
v -0.000024 6.840341 7.864771
v -0.000024 3.956701 6.626910
v 3.932343 6.840341 6.811096
v 3.313411 3.956701 5.739077
v 6.811036 6.840341 3.932404
v 5.739015 3.956701 3.313473
v 7.864711 6.840341 0.000037
v 6.626849 3.956701 0.000037
v 7.864711 6.840341 0.000037

vt 1.375244 -0.232910
vt 1.500244 0.049072
vt 1.250244 0.049072
vt 1.749756 -0.232910
vt 1.749756 -0.322754
vt 2.124512 -0.232910
vt 2.499268 -0.322754
vt 2.499268 -0.232910
vt 2.873779 -0.232910
vt 2.749512 0.049072
vt 2.999512 0.049072
vt 2.002441 0.703857
vt 2.002441 0.732910
vt 2.169434 0.732910
vt 1.835449 0.732910
vt 1.835449 0.703857
vt 1.668457 0.732910
vt 1.668457 0.703857
vt 1.501465 0.703857
vt 1.501465 0.732910
vt 1.334473 0.732910
vt 1.334473 0.703857
vt 1.167236 0.732910
vt 1.170898 0.703857
vt 1.000000 0.703857
vt 0.432861 -0.317627
vt 0.426025 -0.595703
vt 0.332031 -0.595703
vt 0.576660 -0.595703
vt 0.570068 -0.317627
vt 0.670654 -0.595703
vt 0.576660 -0.595703
vt 3.248535 -0.322754
vt 3.248535 -0.232910
vt 3.623047 -0.232910
vt 3.499268 0.049072
vt 3.749268 0.049072
vt 1.000244 -0.232910
vt 1.000244 0.049072
vt 1.000244 -0.322754
vt 2.336426 0.703857
vt 2.336426 0.732910
vt 2.503418 0.703857
vt 2.169434 0.703857
vt 0.432861 -0.317627
vt 0.332031 -0.595703
vt 0.426025 -0.595703
vt 0.426025 -0.595703
vt 0.576660 -0.595703
vt 2.670410 0.732910
vt 2.670410 0.703857
vt 2.503418 0.732910
vt 0.570068 -0.317627
vt 0.670654 -0.595703
vt 0.576660 -0.595703
vt 1.750000 0.049072
vt 2.000000 0.049072
vt 0.333496 -1.265869
vt 0.166748 -1.317139
vt 0.333496 -1.317139
vt 0.166748 -1.265869
vt 0.500244 -1.265869
vt 0.333496 -1.317139
vt 0.500244 -1.317139
vt 0.333496 -1.265869
vt 0.666992 -1.265869
vt 0.500244 -1.317139
vt 0.666992 -1.317139
vt 0.500244 -1.265869
vt 0.833740 -1.265869
vt 0.666992 -1.317139
vt 0.833740 -1.317139
vt 0.666992 -1.265869
vt 1.000488 -1.265869
vt 0.833740 -1.317139
vt 1.000488 -1.317139
vt 0.833740 -1.265869
vt 1.167236 -1.265869
vt 1.000488 -1.317139
vt 1.167236 -1.317139
vt 1.000488 -1.265869
vt 1.333984 -1.265869
vt 1.167236 -1.317139
vt 1.333984 -1.317139
vt 1.167236 -1.265869
vt 1.500732 -1.265869
vt 1.333984 -1.317139
vt 1.500732 -1.317139
vt 1.333984 -1.265869
vt 1.667480 -1.265869
vt 1.500732 -1.317139
vt 1.667480 -1.317139
vt 1.500732 -1.265869
vt 1.834229 -1.265869
vt 1.667480 -1.317139
vt 1.834229 -1.317139
vt 1.667480 -1.265869
vt 2.000977 -1.265869
vt 1.834229 -1.317139
vt 2.000977 -1.317139
vt 1.834229 -1.265869
vt 3.000000 0.703857
vt 2.837402 0.732910
vt 3.000000 0.732910
vt 2.837402 0.703857
vt 0.426025 -0.595703
vt 0.432861 -0.317627
vt 0.410645 1.813232
vt 0.410645 1.940918
vt 0.393555 1.876953
vt 0.457520 1.766357
vt 0.457520 1.987549
vt 0.521240 1.749268
vt 0.521240 2.004883
vt 0.585205 1.766357
vt 0.585205 1.987549
vt 0.632080 1.813232
vt 0.632080 1.940918
vt 0.649170 1.876953
vt 3.998047 -0.322754
vt 3.998047 -0.232910
vt 3.249268 0.049072
vt 2.499756 0.049072
vt 2.249756 0.049072
vt 3.998047 0.049072
vt 0.166748 -1.265869
vt 0.000000 -1.317139
vt 0.166748 -1.317139
vt 0.000000 -1.265869
vt 1.000000 0.550537
vt 1.167236 0.732910
vt 1.000000 0.732910
vt 1.167236 0.550537
vt 1.334473 0.732910
vt 1.334473 0.550537
vt 1.501465 0.732910
vt 1.501465 0.550537
vt 1.668457 0.732910
vt 1.668457 0.550537
vt 1.835449 0.732910
vt 1.835449 0.550537
vt 2.002441 0.732910
vt 2.002441 0.550537
vt 2.169434 0.732910
vt 2.169434 0.550537
vt 2.336426 0.732910
vt 2.336426 0.550537
vt 2.503418 0.732910
vt 2.503418 0.550537
vt 2.670410 0.732910
vt 2.670410 0.550537
vt 2.837402 0.732910
vt 2.837402 0.550537
vt 3.000000 0.732910
vt 3.000000 0.550537
vt 1.000000 0.732910

vn 0.342955 -0.874508 -0.342955
vn 0.399713 -0.599722 -0.693226
vn 0.693226 -0.599722 -0.399713
vn 0.000000 -0.872045 -0.489426
vn 0.000000 -0.770139 -0.637876
vn -0.342955 -0.874508 -0.342955
vn -0.637876 -0.770139 0.000000
vn -0.489426 -0.872045 0.000000
vn -0.342955 -0.874508 0.342955
vn -0.693226 -0.599722 0.399713
vn -0.399713 -0.599722 0.693226
vn 0.000000 1.000000 0.000000
vn 0.000000 1.000000 0.000000
vn 0.000000 1.000000 0.000000
vn 0.000000 1.000000 0.000000
vn 0.000000 1.000000 0.000000
vn 0.000000 1.000000 0.000000
vn 0.000000 1.000000 0.000000
vn 0.000000 1.000000 0.000000
vn 0.000000 1.000000 0.000000
vn 0.000000 1.000000 0.000000
vn 0.000000 1.000000 0.000000
vn 0.000000 1.000000 0.000000
vn 0.000000 1.000000 0.000000
vn 0.000000 1.000000 0.000000
vn 0.000000 0.848889 0.528572
vn -0.222234 0.903279 0.367013
vn 0.000000 0.894525 0.447018
vn -0.367013 0.903279 0.222234
vn -0.528572 0.848889 0.000000
vn -0.447018 0.894525 0.000000
vn -0.367013 0.903279 -0.222234
vn 0.000000 -0.770139 0.637876
vn 0.000000 -0.872045 0.489426
vn 0.342955 -0.874508 0.342955
vn 0.399713 -0.599722 0.693226
vn 0.693226 -0.599722 0.399713
vn 0.489426 -0.872045 0.000000
vn 0.804068 -0.594537 0.000000
vn 0.637876 -0.770139 0.000000
vn 0.000000 1.000000 0.000000
vn 0.000000 1.000000 0.000000
vn 0.000000 1.000000 0.000000
vn 0.000000 1.000000 0.000000
vn 0.000000 0.848889 -0.528572
vn 0.000000 0.894525 -0.447018
vn -0.222234 0.903279 -0.367013
vn 0.222234 0.903279 -0.367013
vn 0.367013 0.903279 -0.222234
vn 0.000000 1.000000 0.000000
vn 0.000000 1.000000 0.000000
vn 0.000000 1.000000 0.000000
vn 0.528572 0.848889 0.000000
vn 0.447018 0.894525 0.000000
vn 0.367013 0.903279 0.222234
vn 0.000000 -0.594537 -0.804068
vn -0.399713 -0.599722 -0.693226
vn 0.707107 0.000000 -0.707107
vn 0.707107 0.000000 -0.707107
vn 0.707107 0.000000 -0.707107
vn 0.707107 0.000000 -0.707107
vn 0.258787 0.000000 -0.965934
vn 0.258787 0.000000 -0.965934
vn 0.258787 0.000000 -0.965934
vn 0.258787 0.000000 -0.965934
vn -0.258844 0.000000 -0.965919
vn -0.258844 0.000000 -0.965919
vn -0.258844 0.000000 -0.965919
vn -0.258844 0.000000 -0.965919
vn -0.707107 0.000000 -0.707107
vn -0.707107 0.000000 -0.707107
vn -0.707107 0.000000 -0.707107
vn -0.707107 0.000000 -0.707107
vn -0.965934 0.000000 -0.258787
vn -0.965934 0.000000 -0.258787
vn -0.965934 0.000000 -0.258787
vn -0.965934 0.000000 -0.258787
vn -0.965934 0.000000 0.258787
vn -0.965934 0.000000 0.258787
vn -0.965934 0.000000 0.258787
vn -0.965934 0.000000 0.258787
vn -0.707107 0.000000 0.707107
vn -0.707107 0.000000 0.707107
vn -0.707107 0.000000 0.707107
vn -0.707107 0.000000 0.707107
vn -0.258787 0.000000 0.965934
vn -0.258787 0.000000 0.965934
vn -0.258787 0.000000 0.965934
vn -0.258787 0.000000 0.965934
vn 0.258787 0.000000 0.965934
vn 0.258787 0.000000 0.965934
vn 0.258787 0.000000 0.965934
vn 0.258787 0.000000 0.965934
vn 0.707107 0.000000 0.707107
vn 0.707107 0.000000 0.707107
vn 0.707107 0.000000 0.707107
vn 0.707107 0.000000 0.707107
vn 0.965934 0.000000 0.258787
vn 0.965934 0.000000 0.258787
vn 0.965934 0.000000 0.258787
vn 0.965934 0.000000 0.258787
vn 0.000000 1.000000 0.000000
vn 0.000000 1.000000 0.000000
vn 0.000000 1.000000 0.000000
vn 0.000000 1.000000 0.000000
vn 0.222234 0.903279 0.367013
vn 0.000000 0.848889 0.528572
vn 0.000000 -1.000000 0.000000
vn 0.000000 -1.000000 0.000000
vn 0.000000 -1.000000 0.000000
vn 0.000000 -1.000000 0.000000
vn 0.000000 -1.000000 0.000000
vn 0.000000 -1.000000 0.000000
vn 0.000000 -1.000000 0.000000
vn 0.000000 -1.000000 0.000000
vn 0.000000 -1.000000 0.000000
vn 0.000000 -1.000000 0.000000
vn 0.000000 -1.000000 0.000000
vn 0.000000 -1.000000 0.000000
vn 0.637876 -0.770139 0.000000
vn 0.489426 -0.872045 0.000000
vn 0.000000 -0.594537 0.804068
vn -0.804068 -0.594537 0.000000
vn -0.693226 -0.599722 -0.399713
vn 0.804068 -0.594537 0.000000
vn 0.965934 0.000000 -0.258787
vn 0.965934 0.000000 -0.258787
vn 0.965934 0.000000 -0.258787
vn 0.965934 0.000000 -0.258787
vn 0.804068 -0.594537 0.000000
vn 0.795784 -0.394474 -0.459477
vn 0.918905 -0.394479 0.000000
vn 0.693226 -0.599722 -0.399713
vn 0.459477 -0.394474 -0.795784
vn 0.399713 -0.599722 -0.693226
vn 0.000000 -0.394479 -0.918905
vn 0.000000 -0.594537 -0.804068
vn -0.459477 -0.394474 -0.795784
vn -0.399713 -0.599722 -0.693226
vn -0.795784 -0.394474 -0.459477
vn -0.693226 -0.599722 -0.399713
vn -0.918905 -0.394479 0.000000
vn -0.804068 -0.594537 0.000000
vn -0.795784 -0.394474 0.459477
vn -0.693226 -0.599722 0.399713
vn -0.459477 -0.394474 0.795784
vn -0.399713 -0.599722 0.693226
vn 0.000000 -0.394479 0.918905
vn 0.000000 -0.594537 0.804068
vn 0.459477 -0.394474 0.795784
vn 0.399713 -0.599722 0.693226
vn 0.795784 -0.394474 0.459477
vn 0.693226 -0.599722 0.399713
vn 0.918905 -0.394479 0.000000
vn 0.804068 -0.594537 0.000000
vn 0.000000 1.000000 0.000000

g polygon0
s 1
usemtl mat1
f 1/1/1 2/2/2 3/3/3
f 1/1/1 4/4/4 2/2/2
f 5/5/5 4/4/4 1/1/1
f 5/5/5 6/6/6 4/4/4
f 7/7/7 6/6/6 5/5/5
f 7/7/7 8/8/8 6/6/6
f 9/9/9 8/8/8 7/7/7
f 9/9/9 10/10/10 8/8/8
f 11/11/11 10/10/10 9/9/9
f 12/12/12 13/13/13 14/14/14
f 12/12/12 15/15/15 13/13/13
f 16/16/16 15/15/15 12/12/12
f 16/16/16 17/17/17 15/15/15
f 18/18/18 17/17/17 16/16/16
f 18/18/18 19/19/19 17/17/17
f 19/19/19 20/20/20 17/17/17
f 19/19/19 21/21/21 20/20/20
f 22/22/22 21/21/21 19/19/19
f 22/22/22 23/23/23 21/21/21
f 24/24/24 23/23/23 22/22/22
f 24/24/24 25/25/25 23/23/23
f 26/26/26 27/27/27 28/28/28
f 26/26/26 29/29/29 27/27/27
f 30/30/30 29/29/29 26/26/26
f 30/30/30 31/31/31 29/29/29
f 32/32/32 31/31/31 30/30/30
f 33/33/33 9/9/9 7/7/7
f 33/33/33 34/34/34 9/9/9
f 35/35/35 34/34/34 33/33/33
f 35/35/35 36/36/36 34/34/34
f 37/37/37 36/36/36 35/35/35
f 38/38/38 3/3/3 39/39/39
f 38/38/38 1/1/1 3/3/3
f 40/40/40 1/1/1 38/38/38
f 40/40/40 5/5/5 1/1/1
f 41/41/41 42/42/42 43/43/43
f 41/41/41 14/14/14 42/42/42
f 44/44/44 14/14/14 41/41/41
f 44/44/44 12/12/12 14/14/14
f 45/45/45 46/46/46 47/47/47
f 45/45/45 48/48/48 46/46/46
f 49/49/49 48/48/48 45/45/45
f 43/43/43 50/50/50 51/51/51
f 43/43/43 52/52/52 50/50/50
f 42/42/42 52/52/52 43/43/43
f 53/53/53 49/49/49 45/45/45
f 53/53/53 54/54/54 49/49/49
f 55/55/55 54/54/54 53/53/53
f 4/4/4 56/56/56 2/2/2
f 4/4/4 57/57/57 56/56/56
f 6/6/6 57/57/57 4/4/4
f 58/58/58 59/59/59 60/60/60
f 58/58/58 61/61/61 59/59/59
f 62/62/62 63/63/63 64/64/64
f 62/62/62 65/65/65 63/63/63
f 66/66/66 67/67/67 68/68/68
f 66/66/66 69/69/69 67/67/67
f 70/70/70 71/71/71 72/72/72
f 70/70/70 73/73/73 71/71/71
f 74/74/74 75/75/75 76/76/76
f 74/74/74 77/77/77 75/75/75
f 78/78/78 79/79/79 80/80/80
f 78/78/78 81/81/81 79/79/79
f 82/82/82 83/83/83 84/84/84
f 82/82/82 85/85/85 83/83/83
f 86/86/86 87/87/87 88/88/88
f 86/86/86 89/89/89 87/87/87
f 90/90/90 91/91/91 92/92/92
f 90/90/90 93/93/93 91/91/91
f 94/94/94 95/95/95 96/96/96
f 94/94/94 97/97/97 95/95/95
f 98/98/98 99/99/99 100/100/100
f 98/98/98 101/101/101 99/99/99
f 30/30/30 47/47/47 32/32/32
f 30/30/30 45/45/45 47/47/47
f 102/102/102 103/103/103 104/104/104
f 102/102/102 105/105/105 103/103/103
f 105/105/105 50/50/50 103/103/103
f 105/105/105 51/51/51 50/50/50
f 106/106/106 107/107/107 28/28/28
f 106/106/106 55/55/55 107/107/107
f 108/108/108 109/109/109 110/110/110
f 108/108/108 111/111/111 109/109/109
f 111/111/111 112/112/112 109/109/109
f 111/111/111 113/113/113 112/112/112
f 113/113/113 114/114/114 112/112/112
f 113/113/113 115/115/115 114/114/114
f 115/115/115 116/116/116 114/114/114
f 115/115/115 117/117/117 116/116/116
f 117/117/117 118/118/118 116/116/116
f 117/117/117 119/119/119 118/118/118
f 120/120/120 35/35/35 33/33/33
f 120/120/120 121/121/121 35/35/35
f 122/122/122 34/34/34 36/36/36
f 122/122/122 11/11/11 34/34/34
f 123/123/123 8/8/8 10/10/10
f 123/123/123 124/124/124 8/8/8
f 124/124/124 6/6/6 8/8/8
f 124/124/124 57/57/57 6/6/6
f 121/121/121 37/37/37 35/35/35
f 121/121/121 125/125/125 37/37/37
f 126/126/126 127/127/127 128/128/128
f 126/126/126 129/129/129 127/127/127
f 130/130/130 131/131/131 132/132/132
f 130/130/130 133/133/133 131/131/131
f 133/133/133 134/134/134 131/131/131
f 133/133/133 135/135/135 134/134/134
f 135/135/135 136/136/136 134/134/134
f 135/135/135 137/137/137 136/136/136
f 137/137/137 138/138/138 136/136/136
f 137/137/137 139/139/139 138/138/138
f 139/139/139 140/140/140 138/138/138
f 139/139/139 141/141/141 140/140/140
f 141/141/141 142/142/142 140/140/140
f 141/141/141 143/143/143 142/142/142
f 143/143/143 144/144/144 142/142/142
f 143/143/143 145/145/145 144/144/144
f 145/145/145 146/146/146 144/144/144
f 145/145/145 147/147/147 146/146/146
f 147/147/147 148/148/148 146/146/146
f 147/147/147 149/149/149 148/148/148
f 149/149/149 150/150/150 148/148/148
f 149/149/149 151/151/151 150/150/150
f 151/151/151 152/152/152 150/150/150
f 151/151/151 153/153/153 152/152/152
f 154/154/154 153/153/153 155/155/155
f 154/154/154 152/152/152 153/153/153
f 55/55/55 53/53/53 107/107/107
f 156/156/156 23/23/23 25/25/25
f 9/9/9 34/34/34 11/11/11

v -0.000024 -5.500968 -1.727543
v 0.960175 -4.190331 0.000037
v 1.727557 -5.500968 0.000037
v -0.000024 -4.190331 -0.960161
v -1.727603 -5.500968 0.000037
v -0.960221 -4.190331 0.000037
v -0.000024 -5.500968 1.727617
v -0.000024 -4.190331 0.960235
v -0.000024 0.709476 -0.937149
v -0.937209 0.709476 0.000037
v -0.000024 0.709476 0.937223
v 0.937163 0.709476 0.000037

vt 0.001343 0.254639
vt -0.076599 0.395325
vt -0.076599 0.254639
vt 0.001343 0.395508
vt 0.083618 0.254639
vt 0.083618 0.395325
vt 0.001343 0.254639
vt 0.001343 0.395325
vt 0.001343 0.774109
vt 0.083618 0.774170
vt 0.001343 0.774170
vt -0.076599 0.774170

vn 0.000000 0.846233 -0.532813
vn 0.954758 0.297384 0.000000
vn 0.532813 0.846233 0.000000
vn 0.000000 0.297384 -0.954758
vn -0.532813 0.846233 0.000000
vn -0.954758 0.297384 0.000000
vn 0.000000 0.846233 0.532813
vn 0.000000 0.297384 0.954758
vn 0.000000 -0.766937 -0.641723
vn -0.641723 -0.766937 0.000000
vn 0.000000 -0.766937 0.641723
vn 0.641723 -0.766937 0.000000

g polygon1
s 1
usemtl mat2
f 157/157/157 158/158/158 159/159/159
f 157/157/157 160/160/160 158/158/158
f 161/161/161 160/160/160 157/157/157
f 161/161/161 162/162/162 160/160/160
f 163/163/163 162/162/162 161/161/161
f 163/163/163 164/164/164 162/162/162
f 159/159/159 164/164/164 163/163/163
f 159/159/159 158/158/158 164/164/164
f 160/160/160 165/165/165 158/158/158
f 160/160/160 166/166/166 165/165/165
f 162/162/162 166/166/166 160/160/160
f 162/162/162 167/167/167 166/166/166
f 164/164/164 167/167/167 162/162/162
f 164/164/164 168/168/168 167/167/167
f 158/158/158 168/168/168 164/164/164
f 158/158/158 165/165/165 168/168/168

v -0.000024 6.840341 0.000037
v 5.802211 6.840341 3.349959
v 6.699820 6.840341 0.000037
v 3.349898 6.840341 5.802272
v -0.000024 6.840341 6.699880
v -3.349945 6.840341 5.802271
v -5.802256 6.840341 3.349959
v -6.699865 6.840341 0.000038
v -5.802257 6.840341 -3.349883
v -3.349947 6.840341 -5.802195
v -0.000026 6.840341 -6.699804
v 3.349895 6.840341 -5.802198
v 5.802209 6.840341 -3.349887

vt 1.148926 0.913818
vt 1.398682 0.769592
vt 1.437317 0.913818
vt 1.293091 0.664063
vt 1.148926 0.625366
vt 1.004700 0.664063
vt 0.899170 0.769592
vt 0.860535 0.913818
vt 0.899170 1.057983
vt 1.004700 1.163574
vt 1.148926 1.202209
vt 1.293091 1.163574
vt 1.398682 1.057983

vn 7924809334889683200000000000000000.000000 7840161470883427500000000000000000.000000 -1.#QNAN0
vn 7924809334889683200000000000000000.000000 7840161470883427500000000000000000.000000 -1.#QNAN0
vn 7924809334889683200000000000000000.000000 7840161470883427500000000000000000.000000 -1.#QNAN0
vn 7900660838543343300000000000000000.000000 0.000000 0.000000
vn 7900660838543343300000000000000000.000000 0.000000 0.000000
vn 7924809334889683200000000000000000.000000 7840161470883427500000000000000000.000000 -1.#QNAN0
vn 7900660838543343300000000000000000.000000 0.000000 0.000000
vn 7900660838543343300000000000000000.000000 0.000000 0.000000
vn 7924809334889683200000000000000000.000000 7840161470883427500000000000000000.000000 -1.#QNAN0
vn 7900660838543343300000000000000000.000000 0.000000 0.000000
vn 7900660838543343300000000000000000.000000 0.000000 0.000000
vn 7924809334889683200000000000000000.000000 7840161470883427500000000000000000.000000 -1.#QNAN0
vn 7900660838543343300000000000000000.000000 0.000000 0.000000

g polygon2
s 1
usemtl mat3
f 169/169/169 170/170/170 171/171/171
f 169/169/169 172/172/172 170/170/170
f 173/173/173 172/172/172 169/169/169
f 169/169/169 174/174/174 173/173/173
f 169/169/169 175/175/175 174/174/174
f 176/176/176 175/175/175 169/169/169
f 169/169/169 177/177/177 176/176/176
f 169/169/169 178/178/178 177/177/177
f 179/179/179 178/178/178 169/169/169
f 169/169/169 180/180/180 179/179/179
f 169/169/169 181/181/181 180/180/180
f 171/171/171 181/181/181 169/169/169

